Nobile-Italic.ufo
<glyph name="quotedbl" format="1">
  <advance width="781"/>
  <unicode hex="0022"/>
  <outline>
    <contour>
      <point x="260" y="1058" type="line"/>
      <point x="159" y="1058" type="line"/>
      <point x="170" y="1534" type="line"/>
      <point x="176" y="1575" type="line"/>
      <point x="388" y="1575" type="line"/>
      <point x="382" y="1534" type="line"/>
    </contour>
    <contour>
      <point x="575" y="1058" type="line"/>
      <point x="475" y="1058" type="line"/>
      <point x="486" y="1534" type="line"/>
      <point x="491" y="1575" type="line"/>
      <point x="703" y="1575" type="line"/>
      <point x="698" y="1534" type="line"/>
    </contour>
  </outline>
</glyph>
<glyph name="numbersign" format="1">
  <advance width="1231"/>
  <unicode hex="0023"/>
  <outline>
    <contour>
      <point x="788" y="873" type="line"/>
      <point x="538" y="873" type="line"/>
      <point x="447" y="525" type="line"/>
      <point x="697" y="525" type="line"/>
    </contour>
    <contour>
      <point x="721" y="63" type="line"/>
      <point x="589" y="63" type="line"/>
      <point x="682" y="430" type="line"/>
      <point x="428" y="430" type="line"/>
      <point x="335" y="63" type="line"/>
      <point x="205" y="63" type="line"/>
      <point x="296" y="430" type="line"/>
      <point x="112" y="430" type="line"/>
      <point x="131" y="525" type="line"/>
      <point x="315" y="525" type="line"/>
      <point x="404" y="873" type="line"/>
      <point x="216" y="873" type="line"/>
      <point x="237" y="966" type="line"/>
      <point x="425" y="966" type="line"/>
      <point x="522" y="1334" type="line"/>
      <point x="652" y="1334" type="line"/>
      <point x="555" y="966" type="line"/>
      <point x="809" y="966" type="line"/>
      <point x="904" y="1332" type="line"/>
      <point x="1036" y="1332" type="line"/>
      <point x="939" y="966" type="line"/>
      <point x="1117" y="966" type="line"/>
      <point x="1094" y="873" type="line"/>
      <point x="920" y="873" type="line"/>
      <point x="831" y="525" type="line"/>
      <point x="1015" y="525" type="line"/>
      <point x="998" y="430" type="line"/>
      <point x="810" y="430" type="line"/>
    </contour>
  </outline>
</glyph>
<glyph name="dollar" format="1">
  <advance width="1181"/>
  <unicode hex="0024"/>
  <outline>
    <contour>
      <point x="555" y="754" type="curve"/>
      <point x="626" y="1176" type="line"/>
      <point x="478" y="1173"/>
      <point x="336" y="1127"/>
      <point x="336" y="986" type="curve" smooth="yes"/>
      <point x="336" y="834"/>
      <point x="432" y="801"/>
    </contour>
    <contour>
      <point x="616" y="575" type="curve"/>
      <point x="539" y="103" type="line"/>
      <point x="730" y="103"/>
      <point x="858" y="154"/>
      <point x="858" y="334" type="curve" smooth="yes"/>
      <point x="858" y="494"/>
      <point x="746" y="537"/>
    </contour>
    <contour>
      <point x="439" y="105" type="curve" smooth="yes"/>
      <point x="443" y="105" type="line"/>
      <point x="534" y="601" type="line"/>
      <point x="375" y="668"/>
      <point x="195" y="758"/>
      <point x="195" y="979" type="curve" smooth="yes"/>
      <point x="195" y="1195"/>
      <point x="408" y="1303"/>
      <point x="648" y="1304" type="curve"/>
      <point x="673" y="1456" type="line"/>
      <point x="758" y="1456" type="line"/>
      <point x="732" y="1302" type="line"/>
      <point x="789" y="1302"/>
      <point x="1045" y="1230"/>
      <point x="1045" y="1230" type="curve"/>
      <point x="994" y="1113" type="line"/>
      <point x="924" y="1136"/>
      <point x="804" y="1174"/>
      <point x="711" y="1174" type="curve"/>
      <point x="637" y="728" type="line"/>
      <point x="827" y="649"/>
      <point x="998" y="591"/>
      <point x="998" y="333" type="curve" smooth="yes"/>
      <point x="998" y="160"/>
      <point x="886" y="49"/>
      <point x="754" y="2" type="curve" smooth="yes"/>
      <point x="682" y="-24"/>
      <point x="601" y="-36"/>
      <point x="512" y="-36" type="curve"/>
      <point x="487" y="-188" type="line"/>
      <point x="396" y="-188" type="line"/>
      <point x="422" y="-33" type="line"/>
      <point x="294" y="-33"/>
      <point x="202" y="22"/>
      <point x="111" y="61" type="curve"/>
      <point x="175" y="192" type="line"/>
      <point x="174" y="182"/>
      <point x="391" y="105"/>
    </contour>
  </outline>
</glyph>
<glyph name="percent" format="1">
  <advance width="1613"/>
  <unicode hex="0025"/>
  <outline>
    <contour>
      <point x="507" y="1579" type="curve" smooth="yes"/>
      <point x="687" y="1579"/>
      <point x="762" y="1459"/>
      <point x="762" y="1281" type="curve" smooth="yes"/>
      <point x="762" y="1027"/>
      <point x="656" y="762"/>
      <point x="399" y="762" type="curve" smooth="yes"/>
      <point x="220" y="762"/>
      <point x="147" y="894"/>
      <point x="147" y="1071" type="curve" smooth="yes"/>
      <point x="147" y="1323"/>
      <point x="252" y="1579"/>
    </contour>
    <contour>
      <point x="1222" y="799" type="curve" smooth="yes"/>
      <point x="1402" y="799"/>
      <point x="1475" y="679"/>
      <point x="1475" y="502" type="curve" smooth="yes"/>
      <point x="1475" y="257"/>
      <point x="1371" y="-23"/>
      <point x="1128" y="-23" type="curve" smooth="yes"/>
      <point x="944" y="-23"/>
      <point x="864" y="97"/>
      <point x="864" y="278" type="curve" smooth="yes"/>
      <point x="864" y="535"/>
      <point x="963" y="799"/>
    </contour>
    <contour>
      <point x="1288" y="1614" type="line"/>
      <point x="421" y="-92" type="line"/>
      <point x="328" y="-51" type="line"/>
      <point x="1189" y="1659" type="line"/>
    </contour>
    <contour>
      <point x="649" y="1284" type="curve" smooth="yes"/>
      <point x="649" y="1406"/>
      <point x="611" y="1476"/>
      <point x="500" y="1476" type="curve" smooth="yes"/>
      <point x="355" y="1476"/>
      <point x="267" y="1294"/>
      <point x="267" y="1064" type="curve" smooth="yes"/>
      <point x="267" y="932"/>
      <point x="316" y="866"/>
      <point x="414" y="866" type="curve" smooth="yes"/>
      <point x="560" y="866"/>
      <point x="649" y="1048"/>
    </contour>
    <contour>
      <point x="1363" y="510" type="curve" smooth="yes"/>
      <point x="1363" y="622"/>
      <point x="1326" y="695"/>
      <point x="1214" y="695" type="curve" smooth="yes"/>
      <point x="1026" y="695"/>
      <point x="982" y="463"/>
      <point x="982" y="279" type="curve" smooth="yes"/>
      <point x="982" y="152"/>
      <point x="1029" y="88"/>
      <point x="1123" y="88" type="curve" smooth="yes"/>
      <point x="1319" y="88"/>
      <point x="1363" y="322"/>
    </contour>
  </outline>
</glyph>
<glyph name="parenleft" format="1">
  <advance width="770"/>
  <unicode hex="0028"/>
  <outline>
    <contour>
      <point x="129" y="472" type="curve" smooth="yes"/>
      <point x="129" y="978"/>
      <point x="336" y="1396"/>
      <point x="635" y="1600" type="curve"/>
      <point x="707" y="1500" type="line"/>
      <point x="460" y="1315"/>
      <point x="302" y="902"/>
      <point x="302" y="466" type="curve" smooth="yes"/>
      <point x="302" y="219"/>
      <point x="366" y="16"/>
      <point x="481" y="-106" type="curve"/>
      <point x="381" y="-204" type="line"/>
      <point x="238" y="-58"/>
      <point x="129" y="176"/>
    </contour>
  </outline>
</glyph>
<glyph name="parenright" format="1">
  <advance width="773"/>
  <unicode hex="0029"/>
  <outline>
    <contour>
      <point x="642" y="922" type="curve" smooth="yes"/>
      <point x="642" y="414"/>
      <point x="438" y="1"/>
      <point x="138" y="-204" type="curve"/>
      <point x="66" y="-106" type="line"/>
      <point x="316" y="88"/>
      <point x="469" y="484"/>
      <point x="469" y="925" type="curve" smooth="yes"/>
      <point x="469" y="1166"/>
      <point x="411" y="1381"/>
      <point x="292" y="1500" type="curve"/>
      <point x="392" y="1600" type="line"/>
      <point x="550" y="1474"/>
      <point x="642" y="1216"/>
    </contour>
  </outline>
</glyph>
<glyph name="asterisk" format="1">
  <advance width="986"/>
  <unicode hex="002A"/>
  <outline>
    <contour>
      <point x="700" y="872" type="line"/>
      <point x="586" y="816" type="line"/>
      <point x="492" y="1063" type="line"/>
      <point x="322" y="816" type="line"/>
      <point x="234" y="872" type="line"/>
      <point x="432" y="1144" type="line"/>
      <point x="142" y="1136" type="line"/>
      <point x="158" y="1248" type="line"/>
      <point x="446" y="1236" type="line"/>
      <point x="336" y="1510" type="line"/>
      <point x="442" y="1566" type="line"/>
      <point x="532" y="1292" type="line"/>
      <point x="714" y="1570" type="line"/>
      <point x="802" y="1514" type="line"/>
      <point x="598" y="1236" type="line"/>
      <point x="892" y="1248" type="line"/>
      <point x="876" y="1136" type="line"/>
      <point x="588" y="1144" type="line"/>
    </contour>
  </outline>
</glyph>
<glyph name="plus" format="1">
  <advance width="958"/>
  <unicode hex="002B"/>
  <outline>
    <contour>
      <point x="549" y="652" type="line"/>
      <point x="841" y="652" type="line"/>
      <point x="821" y="518" type="line"/>
      <point x="531" y="518" type="line"/>
      <point x="483" y="174" type="line"/>
      <point x="349" y="174" type="line"/>
      <point x="399" y="518" type="line"/>
      <point x="109" y="518" type="line"/>
      <point x="127" y="652" type="line"/>
      <point x="417" y="652" type="line"/>
      <point x="467" y="996" type="line"/>
      <point x="597" y="996" type="line"/>
    </contour>
  </outline>
</glyph>
<glyph name="comma" format="1">
  <advance width="548"/>
  <unicode hex="002C"/>
  <outline>
    <contour>
      <point x="232" y="0" type="curve"/>
      <point x="111" y="0" type="line"/>
      <point x="152" y="293" type="line"/>
      <point x="397" y="293" type="line"/>
      <point x="377" y="2" type="line" smooth="yes"/>
      <point x="366" y="-158"/>
      <point x="258" y="-214"/>
      <point x="124" y="-253" type="curve"/>
      <point x="89" y="-159" type="line"/>
      <point x="177" y="-128"/>
      <point x="218" y="-96"/>
    </contour>
  </outline>
</glyph>
<glyph name="hyphen" format="1">
  <advance width="803"/>
  <unicode hex="002D"/>
  <outline>
    <contour>
      <point x="133" y="638" type="line"/>
      <point x="679" y="638" type="line"/>
      <point x="661" y="508" type="line"/>
      <point x="115" y="508" type="line"/>
    </contour>
  </outline>
</glyph>
<glyph name="zero" format="1">
  <advance width="1329"/>
  <unicode hex="0030"/>
  <outline>
    <contour>
      <point x="743" y="1210" type="curve" smooth="yes"/>
      <point x="1048" y="1210"/>
      <point x="1196" y="1017"/>
      <point x="1196" y="715" type="curve" smooth="yes"/>
      <point x="1196" y="312"/>
      <point x="974" y="-30"/>
      <point x="569" y="-30" type="curve" smooth="yes"/>
      <point x="267" y="-30"/>
      <point x="121" y="171"/>
      <point x="121" y="470" type="curve" smooth="yes"/>
      <point x="121" y="872"/>
      <point x="339" y="1210"/>
    </contour>
    <contour>
      <point x="291" y="458" type="curve" smooth="yes"/>
      <point x="291" y="249"/>
      <point x="375" y="110"/>
      <point x="587" y="110" type="curve" smooth="yes"/>
      <point x="903" y="110"/>
      <point x="1022" y="409"/>
      <point x="1022" y="723" type="curve" smooth="yes"/>
      <point x="1022" y="954"/>
      <point x="922" y="1070"/>
      <point x="723" y="1070" type="curve" smooth="yes"/>
      <point x="405" y="1070"/>
      <point x="291" y="772"/>
    </contour>
  </outline>
</glyph>
<glyph name="one" format="1">
  <advance width="681"/>
  <unicode hex="0031"/>
  <outline>
    <contour>
      <point x="562" y="1170" type="line"/>
      <point x="398" y="0" type="line"/>
      <point x="234" y="0" type="line"/>
      <point x="382" y="1056" type="line"/>
      <point x="162" y="966" type="line"/>
      <point x="134" y="1084" type="line"/>
      <point x="366" y="1169" type="line"/>
    </contour>
  </outline>
</glyph>
<glyph name="two" format="1">
  <advance width="1094"/>
  <unicode hex="0032"/>
  <outline>
    <contour>
      <point x="625" y="1198" type="curve" smooth="yes"/>
      <point x="842" y="1198"/>
      <point x="966" y="1087"/>
      <point x="966" y="878" type="curve" smooth="yes"/>
      <point x="966" y="720"/>
      <point x="864" y="565"/>
      <point x="660" y="412" type="curve" smooth="yes"/>
      <point x="311" y="150" type="line"/>
      <point x="833" y="152" type="line"/>
      <point x="813" y="0" type="line"/>
      <point x="87" y="0" type="line"/>
      <point x="105" y="142" type="line"/>
      <point x="243" y="255"/>
      <point x="432" y="394"/>
      <point x="579" y="508" type="curve" smooth="yes"/>
      <point x="680" y="588"/>
      <point x="822" y="718"/>
      <point x="822" y="878" type="curve" smooth="yes"/>
      <point x="822" y="1006"/>
      <point x="720" y="1059"/>
      <point x="583" y="1059" type="curve" smooth="yes"/>
      <point x="482" y="1059"/>
      <point x="370" y="1022"/>
      <point x="304" y="993" type="curve"/>
      <point x="265" y="1116" type="line"/>
      <point x="357" y="1162"/>
      <point x="485" y="1198"/>
    </contour>
  </outline>
</glyph>
<glyph name="three" format="1">
  <advance width="1124"/>
  <unicode hex="0033"/>
  <outline>
    <contour>
      <point x="70" y="-102" type="curve"/>
      <point x="133" y="21" type="line"/>
      <point x="199" y="-8"/>
      <point x="349" y="-50"/>
      <point x="457" y="-50" type="curve" smooth="yes"/>
      <point x="646" y="-50"/>
      <point x="759" y="51"/>
      <point x="759" y="234" type="curve" smooth="yes"/>
      <point x="759" y="370"/>
      <point x="667" y="449"/>
      <point x="483" y="471" type="curve"/>
      <point x="503" y="614" type="line"/>
      <point x="696" y="614"/>
      <point x="829" y="702"/>
      <point x="829" y="889" type="curve" smooth="yes"/>
      <point x="829" y="1022"/>
      <point x="731" y="1057"/>
      <point x="587" y="1057" type="curve" smooth="yes"/>
      <point x="483" y="1057"/>
      <point x="368" y="1021"/>
      <point x="301" y="992" type="curve"/>
      <point x="273" y="1125" type="line"/>
      <point x="342" y="1158"/>
      <point x="498" y="1206"/>
      <point x="613" y="1206" type="curve" smooth="yes"/>
      <point x="816" y="1206"/>
      <point x="986" y="1128"/>
      <point x="986" y="923" type="curve" smooth="yes"/>
      <point x="986" y="728"/>
      <point x="854" y="545"/>
      <point x="668" y="545" type="curve"/>
      <point x="813" y="514"/>
      <point x="925" y="418"/>
      <point x="925" y="237" type="curve" smooth="yes"/>
      <point x="925" y="-42"/>
      <point x="709" y="-198"/>
      <point x="433" y="-198" type="curve" smooth="yes"/>
      <point x="288" y="-198"/>
      <point x="158" y="-157"/>
    </contour>
  </outline>
</glyph>
<glyph name="four" format="1">
  <advance width="1202"/>
  <unicode hex="0034"/>
  <outline>
    <contour>
      <point x="845" y="965" type="line"/>
      <point x="258" y="197" type="line"/>
      <point x="730" y="197" type="line"/>
    </contour>
    <contour>
      <point x="98" y="68" type="line"/>
      <point x="90" y="204" type="line"/>
      <point x="868" y="1208" type="line"/>
      <point x="1018" y="1170" type="line"/>
      <point x="882" y="199" type="line"/>
      <point x="1050" y="199" type="line"/>
      <point x="1030" y="68" type="line"/>
      <point x="862" y="68" type="line"/>
      <point x="816" y="-258" type="line"/>
      <point x="660" y="-286" type="line"/>
      <point x="712" y="68" type="line"/>
    </contour>
  </outline>
</glyph>
<glyph name="five" format="1">
  <advance width="1136"/>
  <unicode hex="0035"/>
  <outline>
    <contour>
      <point x="635" y="692" type="curve" smooth="yes"/>
      <point x="856" y="692"/>
      <point x="958" y="553"/>
      <point x="958" y="329" type="curve" smooth="yes"/>
      <point x="958" y="10"/>
      <point x="736" y="-206"/>
      <point x="417" y="-206" type="curve" smooth="yes"/>
      <point x="316" y="-206"/>
      <point x="184" y="-182"/>
      <point x="124" y="-150" type="curve" smooth="yes"/>
      <point x="89" y="-132" type="line"/>
      <point x="103" y="8" type="line"/>
      <point x="170" y="-26"/>
      <point x="321" y="-58"/>
      <point x="439" y="-58" type="curve" smooth="yes"/>
      <point x="669" y="-58"/>
      <point x="814" y="84"/>
      <point x="814" y="312" type="curve" smooth="yes"/>
      <point x="814" y="464"/>
      <point x="730" y="540"/>
      <point x="563" y="540" type="curve" smooth="yes"/>
      <point x="472" y="540"/>
      <point x="348" y="512"/>
      <point x="293" y="484" type="curve"/>
      <point x="199" y="564" type="line"/>
      <point x="313" y="1172" type="line"/>
      <point x="991" y="1172" type="line"/>
      <point x="973" y="1022" type="line"/>
      <point x="425" y="1022" type="line"/>
      <point x="341" y="612" type="line"/>
      <point x="428" y="641"/>
      <point x="517" y="692"/>
    </contour>
  </outline>
</glyph>
<glyph name="six" format="1">
  <advance width="1196"/>
  <unicode hex="0036"/>
  <outline>
    <contour>
      <point x="112" y="285" type="curve" smooth="yes"/>
      <point x="112" y="841"/>
      <point x="464" y="1210"/>
      <point x="913" y="1319" type="curve"/>
      <point x="932" y="1174" type="line"/>
      <point x="644" y="1112"/>
      <point x="422" y="921"/>
      <point x="338" y="649" type="curve"/>
      <point x="427" y="745"/>
      <point x="540" y="793"/>
      <point x="675" y="793" type="curve" smooth="yes"/>
      <point x="908" y="793"/>
      <point x="1050" y="649"/>
      <point x="1050" y="419" type="curve" smooth="yes"/>
      <point x="1050" y="95"/>
      <point x="840" y="-156"/>
      <point x="510" y="-156" type="curve" smooth="yes"/>
      <point x="242" y="-156"/>
      <point x="112" y="15"/>
    </contour>
    <contour>
      <point x="656" y="657" type="curve" smooth="yes"/>
      <point x="534" y="657"/>
      <point x="361" y="581"/>
      <point x="307" y="523" type="curve"/>
      <point x="292" y="474"/>
      <point x="275" y="350"/>
      <point x="275" y="284" type="curve" smooth="yes"/>
      <point x="275" y="85"/>
      <point x="360" y="-14"/>
      <point x="530" y="-14" type="curve" smooth="yes"/>
      <point x="760" y="-14"/>
      <point x="886" y="182"/>
      <point x="886" y="408" type="curve" smooth="yes"/>
      <point x="886" y="562"/>
      <point x="802" y="657"/>
    </contour>
  </outline>
</glyph>
<glyph name="seven" format="1">
  <advance width="1106"/>
  <unicode hex="0037"/>
  <outline>
    <contour>
      <point x="175" y="1020" type="line"/>
      <point x="193" y="1170" type="line"/>
      <point x="971" y="1170" type="line"/>
      <point x="1005" y="1046" type="line"/>
      <point x="255" y="-236" type="line"/>
      <point x="109" y="-160" type="line"/>
      <point x="347" y="233"/>
      <point x="587" y="625"/>
      <point x="823" y="1020" type="curve"/>
    </contour>
  </outline>
</glyph>
<glyph name="nine" format="1">
  <advance width="1199"/>
  <unicode hex="0039"/>
  <outline>
    <contour>
      <point x="1071" y="873" type="curve" smooth="yes"/>
      <point x="1071" y="317"/>
      <point x="720" y="-52"/>
      <point x="271" y="-161" type="curve"/>
      <point x="251" y="-16" type="line"/>
      <point x="539" y="46"/>
      <point x="762" y="236"/>
      <point x="846" y="509" type="curve"/>
      <point x="757" y="413"/>
      <point x="645" y="365"/>
      <point x="508" y="365" type="curve" smooth="yes"/>
      <point x="275" y="365"/>
      <point x="133" y="509"/>
      <point x="133" y="739" type="curve" smooth="yes"/>
      <point x="133" y="1063"/>
      <point x="343" y="1314"/>
      <point x="673" y="1314" type="curve" smooth="yes"/>
      <point x="941" y="1314"/>
      <point x="1071" y="1143"/>
    </contour>
    <contour>
      <point x="527" y="501" type="curve" smooth="yes"/>
      <point x="649" y="501"/>
      <point x="822" y="577"/>
      <point x="876" y="635" type="curve"/>
      <point x="891" y="684"/>
      <point x="908" y="808"/>
      <point x="908" y="874" type="curve" smooth="yes"/>
      <point x="908" y="1073"/>
      <point x="823" y="1172"/>
      <point x="653" y="1172" type="curve" smooth="yes"/>
      <point x="422" y="1172"/>
      <point x="297" y="977"/>
      <point x="297" y="749" type="curve" smooth="yes"/>
      <point x="297" y="596"/>
      <point x="382" y="501"/>
    </contour>
  </outline>
</glyph>
<glyph name="semicolon" format="1">
  <advance width="620"/>
  <unicode hex="003B"/>
  <outline>
    <contour>
      <point x="441" y="612" type="line"/>
      <point x="183" y="612" type="line"/>
      <point x="225" y="876" type="line"/>
      <point x="483" y="876" type="line"/>
    </contour>
    <contour>
      <point x="242" y="0" type="curve"/>
      <point x="121" y="0" type="line"/>
      <point x="162" y="293" type="line"/>
      <point x="407" y="293" type="line"/>
      <point x="387" y="2" type="line" smooth="yes"/>
      <point x="376" y="-158"/>
      <point x="268" y="-214"/>
      <point x="134" y="-253" type="curve"/>
      <point x="99" y="-159" type="line"/>
      <point x="187" y="-128"/>
      <point x="228" y="-96"/>
    </contour>
  </outline>
</glyph>
<glyph name="equal" format="1">
  <advance width="842"/>
  <unicode hex="003D"/>
  <outline>
    <contour>
      <point x="130" y="411" type="line"/>
      <point x="677" y="411" type="line"/>
      <point x="659" y="280" type="line"/>
      <point x="112" y="280" type="line"/>
    </contour>
    <contour>
      <point x="162" y="639" type="line"/>
      <point x="709" y="639" type="line"/>
      <point x="691" y="508" type="line"/>
      <point x="144" y="508" type="line"/>
    </contour>
  </outline>
</glyph>
<glyph name="at" format="1">
  <advance width="1830"/>
  <unicode hex="0040"/>
  <outline>
    <contour>
      <point x="806" y="-130" type="curve" smooth="yes"/>
      <point x="409" y="-130"/>
      <point x="121" y="82"/>
      <point x="121" y="470" type="curve" smooth="yes"/>
      <point x="121" y="1002"/>
      <point x="511" y="1450"/>
      <point x="1040" y="1450" type="curve" smooth="yes"/>
      <point x="1427" y="1450"/>
      <point x="1705" y="1261"/>
      <point x="1705" y="877" type="curve" smooth="yes"/>
      <point x="1705" y="518"/>
      <point x="1524" y="200"/>
      <point x="1178" y="200" type="curve" smooth="yes"/>
      <point x="1112" y="201"/>
      <point x="1081" y="228"/>
      <point x="1081" y="292" type="curve" smooth="yes"/>
      <point x="1081" y="359"/>
      <point x="1091" y="368"/>
      <point x="1126" y="496" type="curve"/>
      <point x="1116" y="498" type="line"/>
      <point x="1063" y="340"/>
      <point x="934" y="198"/>
      <point x="724" y="198" type="curve" smooth="yes"/>
      <point x="540" y="198"/>
      <point x="438" y="323"/>
      <point x="438" y="510" type="curve" smooth="yes"/>
      <point x="438" y="842"/>
      <point x="715" y="1128"/>
      <point x="1046" y="1128" type="curve" smooth="yes"/>
      <point x="1071" y="1128"/>
      <point x="1290" y="1096"/>
      <point x="1308" y="1096" type="curve"/>
      <point x="1344" y="986" type="line"/>
      <point x="1190" y="318" type="line"/>
      <point x="1453" y="318"/>
      <point x="1556" y="598"/>
      <point x="1556" y="870" type="curve" smooth="yes"/>
      <point x="1556" y="1180"/>
      <point x="1345" y="1316"/>
      <point x="1028" y="1316" type="curve" smooth="yes"/>
      <point x="579" y="1316"/>
      <point x="268" y="929"/>
      <point x="268" y="484" type="curve" smooth="yes"/>
      <point x="268" y="165"/>
      <point x="499" y="4"/>
      <point x="832" y="4" type="curve" smooth="yes"/>
      <point x="1038" y="4"/>
      <point x="1211" y="64"/>
      <point x="1316" y="158" type="curve"/>
      <point x="1345" y="114"/>
      <point x="1366" y="84"/>
      <point x="1378" y="68" type="curve"/>
      <point x="1268" y="-57"/>
      <point x="1047" y="-128"/>
    </contour>
    <contour>
      <point x="1046" y="1008" type="curve" smooth="yes"/>
      <point x="792" y="1008"/>
      <point x="582" y="775"/>
      <point x="582" y="512" type="curve" smooth="yes"/>
      <point x="582" y="391"/>
      <point x="642" y="330"/>
      <point x="762" y="330" type="curve" smooth="yes"/>
      <point x="948" y="330"/>
      <point x="1077" y="470"/>
      <point x="1150" y="750" type="curve" smooth="yes"/>
      <point x="1206" y="988" type="line"/>
      <point x="1166" y="988"/>
      <point x="1095" y="1008"/>
    </contour>
  </outline>
</glyph>
<glyph name="A" format="1">
  <advance width="1481"/>
  <unicode hex="0041"/>
  <outline>
    <contour>
      <point x="895" y="1411" type="curve"/>
      <point x="769" y="1137"/>
      <point x="508" y="541"/>
      <point x="481" y="491" type="curve"/>
      <point x="1075" y="491" type="line"/>
      <point x="1060" y="557"/>
      <point x="930" y="1245"/>
    </contour>
    <contour>
      <point x="1335" y="0" type="line"/>
      <point x="1177" y="0" type="line"/>
      <point x="1092" y="387" type="line"/>
      <point x="439" y="387" type="line"/>
      <point x="266" y="0" type="line"/>
      <point x="75" y="0" type="line"/>
      <point x="809" y="1574" type="line"/>
      <point x="1008" y="1574" type="line"/>
    </contour>
    <contour>
      <point x="734" y="1574" type="move" name="top"/>
    </contour>
    <contour>
      <point x="1320" y="10" type="move" name="ogonek"/>
    </contour>
  </outline>
</glyph>
<glyph name="B" format="1">
  <advance width="1415"/>
  <unicode hex="0042"/>
  <outline>
    <contour>
      <point x="923" y="862" type="curve"/>
      <point x="1111" y="840"/>
      <point x="1251" y="741"/>
      <point x="1251" y="528" type="curve" smooth="yes"/>
      <point x="1251" y="116"/>
      <point x="941" y="0"/>
      <point x="529" y="0" type="curve" smooth="yes"/>
      <point x="106" y="0" type="line"/>
      <point x="330" y="1574" type="line"/>
      <point x="695" y="1574" type="line" smooth="yes"/>
      <point x="1026" y="1574"/>
      <point x="1277" y="1546"/>
      <point x="1277" y="1270" type="curve" smooth="yes"/>
      <point x="1277" y="1014"/>
      <point x="1143" y="895"/>
    </contour>
    <contour>
      <point x="398" y="786" type="line"/>
      <point x="308" y="144" type="line"/>
      <point x="549" y="144" type="line" smooth="yes"/>
      <point x="867" y="144"/>
      <point x="1083" y="212"/>
      <point x="1083" y="532" type="curve" smooth="yes"/>
      <point x="1083" y="750"/>
      <point x="916" y="786"/>
      <point x="675" y="786" type="curve" smooth="yes"/>
    </contour>
    <contour>
      <point x="490" y="1436" type="line"/>
      <point x="416" y="916" type="line"/>
      <point x="689" y="916" type="line" smooth="yes"/>
      <point x="927" y="916"/>
      <point x="1121" y="970"/>
      <point x="1121" y="1208" type="curve" smooth="yes"/>
      <point x="1121" y="1433"/>
      <point x="951" y="1436"/>
      <point x="681" y="1436" type="curve" smooth="yes"/>
    </contour>
  </outline>
</glyph>
<glyph name="D" format="1">
  <advance width="1486"/>
  <unicode hex="0044"/>
  <outline>
    <contour>
      <point x="739" y="1574" type="move" name="top"/>
    </contour>
    <contour>
      <point x="739" y="787" type="move" name="center"/>
    </contour>
    <contour>
      <point x="1361" y="1010" type="curve" smooth="yes"/>
      <point x="1361" y="476"/>
      <point x="1157" y="0"/>
      <point x="619" y="0" type="curve" smooth="yes"/>
      <point x="106" y="0" type="line"/>
      <point x="330" y="1574" type="line"/>
      <point x="843" y="1574" type="line" smooth="yes"/>
      <point x="1188" y="1574"/>
      <point x="1361" y="1386"/>
    </contour>
    <contour>
      <point x="1177" y="1012" type="curve" smooth="yes"/>
      <point x="1177" y="1286"/>
      <point x="1080" y="1423"/>
      <point x="820" y="1423" type="curve" smooth="yes"/>
      <point x="487" y="1423" type="line"/>
      <point x="309" y="149" type="line"/>
      <point x="642" y="149" type="line" smooth="yes"/>
      <point x="1058" y="149"/>
      <point x="1177" y="595"/>
    </contour>
  </outline>
</glyph>
<glyph name="E" format="1">
  <advance width="1309"/>
  <unicode hex="0045"/>
  <outline>
    <contour>
      <point x="593" y="1574" type="move" name="top"/>
    </contour>
    <contour>
      <point x="593" y="0" type="move" name="bottom"/>
    </contour>
    <contour>
      <point x="1066" y="10" type="move" name="ogonek"/>
    </contour>
    <contour>
      <point x="308" y="144" type="line"/>
      <point x="1040" y="144" type="line"/>
      <point x="1022" y="0" type="line"/>
      <point x="106" y="0" type="line"/>
      <point x="330" y="1574" type="line"/>
      <point x="1230" y="1574" type="line"/>
      <point x="1210" y="1436" type="line"/>
      <point x="490" y="1436" type="line"/>
      <point x="414" y="890" type="line"/>
      <point x="1042" y="890" type="line"/>
      <point x="1028" y="776" type="line"/>
      <point x="398" y="776" type="line"/>
    </contour>
  </outline>
</glyph>
<glyph name="F" format="1">
  <advance width="1293"/>
  <unicode hex="0046"/>
  <outline>
    <contour>
      <point x="1053" y="878" type="line"/>
      <point x="1037" y="762" type="line"/>
      <point x="398" y="762" type="line"/>
      <point x="288" y="0" type="line"/>
      <point x="106" y="0" type="line"/>
      <point x="330" y="1574" type="line"/>
      <point x="1229" y="1574" type="line"/>
      <point x="1209" y="1436" type="line"/>
      <point x="492" y="1436" type="line"/>
      <point x="414" y="878" type="line"/>
    </contour>
  </outline>
</glyph>
<glyph name="K" format="1">
  <advance width="1449"/>
  <unicode hex="004B"/>
  <outline>
    <contour>
      <point x="637" y="1574" type="move" name="top"/>
    </contour>
    <contour>
      <point x="637" y="0" type="move" name="bottom"/>
    </contour>
    <contour>
      <point x="596" y="846" type="line"/>
      <point x="1169" y="1574" type="line"/>
      <point x="1372" y="1574" type="line"/>
      <point x="1164" y="1310"/>
      <point x="954" y="1048"/>
      <point x="746" y="784" type="curve"/>
      <point x="898" y="522"/>
      <point x="1051" y="261"/>
      <point x="1204" y="0" type="curve"/>
      <point x="1007" y="0" type="line"/>
      <point x="578" y="740" type="line"/>
      <point x="392" y="740" type="line"/>
      <point x="288" y="0" type="line"/>
      <point x="106" y="0" type="line"/>
      <point x="330" y="1574" type="line"/>
      <point x="510" y="1574" type="line"/>
      <point x="408" y="846" type="line"/>
    </contour>
  </outline>
</glyph>
<glyph name="L" format="1">
  <advance width="1132"/>
  <unicode hex="004C"/>
  <outline>
    <contour>
      <point x="533" y="1574" type="move" name="top"/>
    </contour>
    <contour>
      <point x="533" y="0" type="move" name="bottom"/>
    </contour>
    <contour>
      <point x="308" y="144" type="line"/>
      <point x="1002" y="144" type="line"/>
      <point x="982" y="0" type="line"/>
      <point x="106" y="0" type="line"/>
      <point x="330" y="1574" type="line"/>
      <point x="510" y="1574" type="line"/>
    </contour>
  </outline>
</glyph>
<glyph name="M" format="1">
  <advance width="1920"/>
  <unicode hex="004D"/>
  <outline>
    <contour>
      <point x="971" y="0" type="curve"/>
      <point x="755" y="0" type="line"/>
      <point x="674" y="485"/>
      <point x="595" y="971"/>
      <point x="513" y="1455" type="curve"/>
      <point x="431" y="974"/>
      <point x="357" y="485"/>
      <point x="279" y="0" type="curve"/>
      <point x="101" y="0" type="line"/>
      <point x="355" y="1574" type="line"/>
      <point x="651" y="1574" type="line"/>
      <point x="865" y="279" type="line"/>
      <point x="886" y="142" type="line"/>
      <point x="1098" y="621"/>
      <point x="1313" y="1097"/>
      <point x="1526" y="1575" type="curve"/>
      <point x="1815" y="1574" type="line"/>
      <point x="1625" y="0" type="line"/>
      <point x="1449" y="0" type="line"/>
      <point x="1600" y="1227" type="line"/>
      <point x="1632" y="1467" type="line"/>
      <point x="1412" y="978"/>
      <point x="1191" y="489"/>
    </contour>
  </outline>
</glyph>
<glyph name="O" format="1">
  <advance width="1515"/>
  <unicode hex="004F"/>
  <outline>
    <contour>
      <point x="321" y="558" type="curve" smooth="yes"/>
      <point x="321" y="282"/>
      <point x="403" y="112"/>
      <point x="661" y="112" type="curve" smooth="yes"/>
      <point x="1077" y="112"/>
      <point x="1203" y="600"/>
      <point x="1203" y="1018" type="curve" smooth="yes"/>
      <point x="1203" y="1293"/>
      <point x="1122" y="1458"/>
      <point x="867" y="1458" type="curve" smooth="yes"/>
      <point x="448" y="1458"/>
      <point x="321" y="979"/>
    </contour>
    <contour>
      <point x="647" y="-40" type="curve" smooth="yes"/>
      <point x="287" y="-40"/>
      <point x="135" y="185"/>
      <point x="135" y="552" type="curve" smooth="yes"/>
      <point x="135" y="1093"/>
      <point x="338" y="1610"/>
      <point x="879" y="1610" type="curve" smooth="yes"/>
      <point x="1236" y="1610"/>
      <point x="1389" y="1377"/>
      <point x="1389" y="1014" type="curve" smooth="yes"/>
      <point x="1389" y="474"/>
      <point x="1187" y="-40"/>
    </contour>
    <contour>
      <point x="752" y="1574" type="move" name="top"/>
    </contour>
  </outline>
</glyph>
<glyph name="P" format="1">
  <advance width="1394"/>
  <unicode hex="0050"/>
  <outline>
    <contour>
      <point x="1292" y="1214" type="curve" smooth="yes"/>
      <point x="1292" y="768"/>
      <point x="982" y="638"/>
      <point x="536" y="638" type="curve" smooth="yes"/>
      <point x="376" y="638" type="line"/>
      <point x="288" y="0" type="line"/>
      <point x="106" y="0" type="line"/>
      <point x="330" y="1574" type="line"/>
      <point x="698" y="1574" type="line" smooth="yes"/>
      <point x="1047" y="1574"/>
      <point x="1292" y="1520"/>
    </contour>
    <contour>
      <point x="490" y="1436" type="line"/>
      <point x="398" y="784" type="line"/>
      <point x="558" y="784" type="line" smooth="yes"/>
      <point x="907" y="784"/>
      <point x="1122" y="851"/>
      <point x="1122" y="1200" type="curve" smooth="yes"/>
      <point x="1122" y="1418"/>
      <point x="925" y="1436"/>
      <point x="690" y="1436" type="curve" smooth="yes"/>
    </contour>
  </outline>
</glyph>
<glyph name="R" format="1">
  <advance width="1409"/>
  <unicode hex="0052"/>
  <outline>
    <contour>
      <point x="1132" y="893"/>
      <point x="930" y="862"/>
      <point x="573" y="862" type="curve" smooth="yes"/>
      <point x="410" y="862" type="line"/>
      <point x="491" y="1436" type="line"/>
      <point x="717" y="1436" type="line" smooth="yes"/>
      <point x="929" y="1436"/>
      <point x="1132" y="1427"/>
      <point x="1132" y="1216" type="curve" smooth="yes"/>
    </contour>
    <contour>
    </contour>
    <contour>
      <point x="287" y="0" type="line"/>
      <point x="392" y="734" type="line"/>
      <point x="560" y="734" type="line" smooth="yes"/>
      <point x="723" y="734"/>
      <point x="742" y="735"/>
      <point x="763" y="737" type="curve" smooth="yes"/>
      <point x="777" y="738"/>
      <point x="985" y="1"/>
      <point x="987" y="0" type="curve"/>
      <point x="1174" y="0" type="line"/>
      <point x="1171" y="1"/>
      <point x="960" y="670"/>
      <point x="930" y="761" type="curve"/>
      <point x="1180" y="824"/>
      <point x="1292" y="989"/>
      <point x="1292" y="1235" type="curve" smooth="yes"/>
      <point x="1292" y="1525"/>
      <point x="1009" y="1574"/>
      <point x="698" y="1574" type="curve" smooth="yes"/>
      <point x="330" y="1574" type="line"/>
      <point x="106" y="0" type="line"/>
    </contour>
    <contour>
      <point x="676" y="1574" type="move" name="top"/>
    </contour>
    <contour>
      <point x="676" y="0" type="move" name="bottom"/>
    </contour>
  </outline>
</glyph>
<glyph name="T" format="1">
  <advance width="1201"/>
  <unicode hex="0054"/>
  <outline>
    <contour>
      <point x="523" y="1574" type="move" name="top"/>
    </contour>
    <contour>
      <point x="523" y="0" type="move" name="bottom"/>
    </contour>
    <contour>
      <point x="523" y="787" type="move" name="center"/>
    </contour>
    <contour>
      <point x="121" y="1574" type="line"/>
      <point x="1151" y="1574" type="line"/>
      <point x="1131" y="1436" type="line"/>
      <point x="707" y="1436" type="line"/>
      <point x="505" y="0" type="line"/>
      <point x="327" y="0" type="line"/>
      <point x="531" y="1436" type="line"/>
      <point x="101" y="1436" type="line"/>
    </contour>
  </outline>
</glyph>
<glyph name="V" format="1">
  <advance width="1359"/>
  <unicode hex="0056"/>
  <outline>
    <contour>
      <point x="1145" y="1574" type="curve"/>
      <point x="1308" y="1574" type="line"/>
      <point x="631" y="0" type="line"/>
      <point x="378" y="0" type="line"/>
      <point x="140" y="1574" type="line"/>
      <point x="304" y="1574" type="line"/>
      <point x="376" y="1086"/>
      <point x="452" y="602"/>
      <point x="520" y="110" type="curve"/>
      <point x="722" y="604"/>
      <point x="937" y="1086"/>
    </contour>
  </outline>
</glyph>
<glyph name="W" format="1">
  <advance width="1978"/>
  <unicode hex="0057"/>
  <outline>
    <contour>
      <point x="977" y="1574" type="move" name="top"/>
    </contour>
    <contour>
      <point x="1185" y="1574" type="line"/>
      <point x="1250" y="244" type="line"/>
      <point x="1257" y="122" type="line"/>
      <point x="1420" y="611"/>
      <point x="1594" y="1089"/>
      <point x="1761" y="1574" type="curve"/>
      <point x="1923" y="1574" type="line"/>
      <point x="1371" y="0" type="line"/>
      <point x="1112" y="0" type="line"/>
      <point x="1033" y="1522" type="line"/>
      <point x="531" y="0" type="line"/>
      <point x="251" y="0" type="line"/>
      <point x="161" y="1574" type="line"/>
      <point x="323" y="1574" type="line"/>
      <point x="398" y="156" type="line"/>
      <point x="401" y="67" type="line"/>
      <point x="567" y="566"/>
      <point x="724" y="1072"/>
      <point x="887" y="1574" type="curve"/>
    </contour>
  </outline>
</glyph>
<glyph name="Y" format="1">
  <advance width="1286"/>
  <unicode hex="0059"/>
  <outline>
    <contour>
      <point x="587" y="1574" type="move" name="top"/>
    </contour>
    <contour>
      <point x="553" y="665" type="curve"/>
      <point x="659" y="872" type="line"/>
      <point x="1063" y="1574" type="line"/>
      <point x="1239" y="1574" type="line"/>
      <point x="609" y="486" type="line"/>
      <point x="541" y="0" type="line"/>
      <point x="363" y="0" type="line"/>
      <point x="435" y="516" type="line"/>
      <point x="117" y="1574" type="line"/>
      <point x="278" y="1574" type="line"/>
      <point x="370" y="1271"/>
      <point x="464" y="970"/>
    </contour>
  </outline>
</glyph>
<glyph name="backslash" format="1">
  <advance width="734"/>
  <unicode hex="005C"/>
  <outline>
    <contour>
      <point x="449" y="-168" type="line"/>
      <point x="126" y="1707" type="line"/>
      <point x="275" y="1730" type="line"/>
      <point x="595" y="-139" type="line"/>
    </contour>
  </outline>
</glyph>
<glyph name="bracketright" format="1">
  <advance width="1020"/>
  <unicode hex="005D"/>
  <outline>
    <contour>
      <point x="727" y="1436" type="line"/>
      <point x="289" y="1436" type="line"/>
      <point x="309" y="1580" type="line"/>
      <point x="925" y="1580" type="line"/>
      <point x="705" y="0" type="line"/>
      <point x="85" y="0" type="line"/>
      <point x="107" y="144" type="line"/>
      <point x="545" y="144" type="line"/>
    </contour>
  </outline>
</glyph>
<glyph name="asciicircum" format="1">
  <advance width="1324"/>
  <unicode hex="005E"/>
  <outline>
    <contour>
      <point x="869" y="888" type="line"/>
      <point x="909" y="714"/>
      <point x="944" y="536"/>
      <point x="980" y="358" type="curve"/>
      <point x="844" y="358" type="line"/>
      <point x="823" y="464"/>
      <point x="803" y="571"/>
      <point x="781" y="676" type="curve"/>
      <point x="719" y="568"/>
      <point x="653" y="464"/>
      <point x="588" y="358" type="curve"/>
      <point x="430" y="358" type="line"/>
      <point x="538" y="535"/>
      <point x="646" y="712"/>
      <point x="756" y="888" type="curve"/>
    </contour>
  </outline>
</glyph>
<glyph name="underscore" format="1">
  <advance width="1130"/>
  <unicode hex="005F"/>
  <outline>
    <contour>
      <point x="108" y="32" type="line"/>
      <point x="984" y="32" type="line"/>
      <point x="962" y="-110" type="line"/>
      <point x="88" y="-110" type="line"/>
    </contour>
  </outline>
</glyph>
<glyph name="grave" format="1">
  <advance width="714"/>
  <unicode hex="0060"/>
  <outline>
    <contour>
      <point x="356" y="1110" type="move" name="_top"/>
    </contour>
    <contour>
      <point x="480" y="356" type="line"/>
      <point x="406" y="356" type="line"/>
      <point x="232" y="976" type="line"/>
      <point x="474" y="976" type="line"/>
    </contour>
  </outline>
</glyph>
<glyph name="a" format="1">
  <advance width="1194"/>
  <unicode hex="0061"/>
  <outline>
    <contour>
      <point x="276" y="406" type="curve" smooth="yes"/>
      <point x="276" y="219"/>
      <point x="329" y="107"/>
      <point x="501" y="107" type="curve" smooth="yes"/>
      <point x="642" y="107"/>
      <point x="744" y="219"/>
      <point x="800" y="304" type="curve"/>
      <point x="897" y="967" type="line"/>
      <point x="897" y="966"/>
      <point x="812" y="1002"/>
      <point x="723" y="1002" type="curve" smooth="yes"/>
      <point x="447" y="1002"/>
      <point x="276" y="689"/>
    </contour>
    <contour>
      <point x="461" y="-21" type="curve" smooth="yes"/>
      <point x="216" y="-21"/>
      <point x="114" y="156"/>
      <point x="114" y="400" type="curve" smooth="yes"/>
      <point x="114" y="764"/>
      <point x="352" y="1130"/>
      <point x="714" y="1130" type="curve" smooth="yes"/>
      <point x="843" y="1130"/>
      <point x="986" y="1067"/>
      <point x="1069" y="1026" type="curve"/>
      <point x="923" y="0" type="line"/>
      <point x="793" y="0" type="line"/>
      <point x="800" y="196" type="line"/>
      <point x="738" y="82"/>
      <point x="622" y="-21"/>
    </contour>
    <contour>
      <point x="548" y="1110" type="move" name="top"/>
    </contour>
    <contour>
      <point x="985" y="10" type="move" name="ogonek"/>
    </contour>
  </outline>
</glyph>
<glyph name="b" format="1">
  <advance width="1209"/>
  <unicode hex="0062"/>
  <outline>
    <contour>
      <point x="913" y="706" type="curve" smooth="yes"/>
      <point x="913" y="859"/>
      <point x="904" y="1002"/>
      <point x="751" y="1002" type="curve" smooth="yes"/>
      <point x="580" y="1002"/>
      <point x="435" y="792"/>
      <point x="367" y="682" type="curve"/>
      <point x="311" y="281" type="line"/>
      <point x="358" y="199"/>
      <point x="453" y="107"/>
      <point x="583" y="107" type="curve" smooth="yes"/>
      <point x="834" y="107"/>
      <point x="913" y="456"/>
    </contour>
    <contour>
      <point x="769" y="1130" type="curve" smooth="yes"/>
      <point x="1012" y="1130"/>
      <point x="1073" y="937"/>
      <point x="1073" y="694" type="curve" smooth="yes"/>
      <point x="1073" y="345"/>
      <point x="922" y="-21"/>
      <point x="575" y="-21" type="curve" smooth="yes"/>
      <point x="446" y="-21"/>
      <point x="346" y="48"/>
      <point x="275" y="183" type="curve"/>
      <point x="223" y="0" type="line"/>
      <point x="106" y="0" type="line"/>
      <point x="337" y="1639" type="line"/>
      <point x="507" y="1653" type="line"/>
      <point x="389" y="829" type="line"/>
      <point x="438" y="951"/>
      <point x="605" y="1130"/>
    </contour>
  </outline>
</glyph>
<glyph name="e" format="1">
  <advance width="1089.59459165"/>
  <unicode hex="0065"/>
  <outline>
    <contour>
      <point x="1003" y="878"/>
      <point x="1004" y="867"/>
      <point x="1004" y="855" type="curve" smooth="yes"/>
      <point x="1004" y="611"/>
      <point x="729" y="507"/>
      <point x="464" y="495" type="curve" smooth="yes"/>
      <point x="442" y="494"/>
      <point x="327" y="487"/>
      <point x="278" y="485" type="curve"/>
      <point x="274" y="447"/>
      <point x="272" y="443"/>
      <point x="272" y="409" type="curve" smooth="yes"/>
      <point x="272" y="227"/>
      <point x="333" y="107"/>
      <point x="512" y="107" type="curve" smooth="yes"/>
      <point x="623" y="107"/>
      <point x="784" y="174"/>
      <point x="865" y="242" type="curve"/>
      <point x="924" y="139" type="line"/>
      <point x="838" y="62"/>
      <point x="675" y="-21"/>
      <point x="482" y="-21" type="curve" smooth="yes"/>
      <point x="235" y="-21"/>
      <point x="114" y="160"/>
      <point x="114" y="412" type="curve" smooth="yes"/>
      <point x="114" y="780"/>
      <point x="388" y="1130"/>
      <point x="709" y="1130" type="curve" smooth="yes"/>
      <point x="867" y="1130"/>
      <point x="989" y="1038"/>
      <point x="1002" y="890" type="curve" smooth="yes"/>
    </contour>
    <contour>
      <point x="469" y="604" type="line" smooth="yes"/>
      <point x="643" y="615"/>
      <point x="862" y="691"/>
      <point x="862" y="841" type="curve" smooth="yes"/>
      <point x="862" y="850"/>
      <point x="862" y="860"/>
      <point x="860" y="870" type="curve" smooth="yes"/>
      <point x="847" y="956"/>
      <point x="804" y="1002"/>
      <point x="711" y="1002" type="curve" smooth="yes"/>
      <point x="512" y="1002"/>
      <point x="344" y="795"/>
      <point x="295" y="593" type="curve"/>
    </contour>
    <contour>
      <point x="507" y="1110" type="move" name="top"/>
    </contour>
    <contour>
      <point x="507" y="0" type="move" name="bottom"/>
    </contour>
    <contour>
      <point x="912" y="10" type="move" name="ogonek"/>
    </contour>
  </outline>
</glyph>
<glyph name="h" format="1">
  <advance width="1209"/>
  <unicode hex="0068"/>
  <outline>
    <contour>
      <point x="826" y="1130" type="curve" smooth="yes"/>
      <point x="995" y="1130"/>
      <point x="1073" y="1011"/>
      <point x="1073" y="837" type="curve" smooth="yes"/>
      <point x="1073" y="810"/>
      <point x="1066" y="743"/>
      <point x="1051" y="636" type="curve" smooth="yes"/>
      <point x="960" y="0" type="line"/>
      <point x="795" y="0" type="line"/>
      <point x="886" y="636" type="line" smooth="yes"/>
      <point x="895" y="691"/>
      <point x="899" y="742"/>
      <point x="899" y="791" type="curve" smooth="yes"/>
      <point x="899" y="915"/>
      <point x="884" y="1002"/>
      <point x="772" y="1002" type="curve" smooth="yes"/>
      <point x="649" y="1002"/>
      <point x="514" y="894"/>
      <point x="368" y="684" type="curve"/>
      <point x="271" y="0" type="line"/>
      <point x="106" y="0" type="line"/>
      <point x="338" y="1638" type="line"/>
      <point x="506" y="1653" type="line"/>
      <point x="392" y="854" type="line"/>
      <point x="505" y="1038"/>
      <point x="649" y="1130"/>
    </contour>
    <contour>
      <point x="572" y="1110" type="move" name="top"/>
    </contour>
    <contour>
      <point x="572" y="555" type="move" name="center"/>
    </contour>
  </outline>
</glyph>
<glyph name="i" format="1">
  <advance width="608"/>
  <unicode hex="0069"/>
  <outline>
    <contour>
      <point x="425" y="1558" type="curve" smooth="yes"/>
      <point x="482" y="1558"/>
      <point x="521" y="1509"/>
      <point x="521" y="1452" type="curve" smooth="yes"/>
      <point x="521" y="1380"/>
      <point x="459" y="1302"/>
      <point x="389" y="1302" type="curve" smooth="yes"/>
      <point x="330" y="1302"/>
      <point x="289" y="1350"/>
      <point x="289" y="1410" type="curve" smooth="yes"/>
      <point x="289" y="1483"/>
      <point x="353" y="1558"/>
    </contour>
    <contour>
      <point x="427" y="1110" type="line"/>
      <point x="271" y="0" type="line"/>
      <point x="109" y="0" type="line"/>
      <point x="265" y="1110" type="line"/>
    </contour>
  </outline>
</glyph>
<glyph name="j" format="1">
  <advance width="729"/>
  <unicode hex="006A"/>
  <outline>
    <contour>
      <point x="545" y="1558" type="curve" smooth="yes"/>
      <point x="602" y="1558"/>
      <point x="641" y="1509"/>
      <point x="641" y="1452" type="curve" smooth="yes"/>
      <point x="641" y="1380"/>
      <point x="579" y="1302"/>
      <point x="509" y="1302" type="curve" smooth="yes"/>
      <point x="450" y="1302"/>
      <point x="409" y="1350"/>
      <point x="409" y="1410" type="curve" smooth="yes"/>
      <point x="409" y="1483"/>
      <point x="473" y="1558"/>
    </contour>
    <contour>
      <point x="252" y="172" type="curve" smooth="yes"/>
      <point x="385" y="1110" type="line"/>
      <point x="553" y="1110" type="line"/>
      <point x="416" y="156" type="line" smooth="yes"/>
      <point x="381" y="-87"/>
      <point x="261" y="-319"/>
      <point x="59" y="-372" type="curve"/>
      <point x="35" y="-258" type="line"/>
      <point x="179" y="-160"/>
      <point x="222" y="-40"/>
    </contour>
  </outline>
</glyph>
<glyph name="l" format="1">
  <advance width="594"/>
  <unicode hex="006C"/>
  <outline>
    <contour>
      <point x="294" y="1110" type="move" name="top"/>
    </contour>
    <contour>
      <point x="294" y="0" type="move" name="bottom"/>
    </contour>
    <contour>
      <point x="568" y="1110" type="move" name="topright"/>
    </contour>
    <contour>
      <point x="505" y="1653" type="line"/>
      <point x="271" y="0" type="line"/>
      <point x="106" y="0" type="line"/>
      <point x="337" y="1638" type="line"/>
    </contour>
  </outline>
</glyph>
<glyph name="m" format="1">
  <advance width="1793"/>
  <unicode hex="006D"/>
  <outline>
    <contour>
      <point x="1491" y="834" type="curve" smooth="yes"/>
      <point x="1491" y="937"/>
      <point x="1467" y="1002"/>
      <point x="1367" y="1002" type="curve" smooth="yes"/>
      <point x="1184" y="1002"/>
      <point x="1078" y="841"/>
      <point x="1011" y="682" type="curve"/>
      <point x="913" y="0" type="line"/>
      <point x="751" y="0" type="line"/>
      <point x="855" y="724" type="line" smooth="yes"/>
      <point x="861" y="764"/>
      <point x="864" y="800"/>
      <point x="864" y="832" type="curve" smooth="yes"/>
      <point x="864" y="935"/>
      <point x="839" y="1002"/>
      <point x="738" y="1002" type="curve" smooth="yes"/>
      <point x="565" y="1002"/>
      <point x="438" y="821"/>
      <point x="364" y="684" type="curve"/>
      <point x="267" y="0" type="line"/>
      <point x="102" y="0" type="line"/>
      <point x="260" y="1110" type="line"/>
      <point x="382" y="1110" type="line"/>
      <point x="382" y="849" type="line"/>
      <point x="456" y="998"/>
      <point x="583" y="1130"/>
      <point x="776" y="1130" type="curve" smooth="yes"/>
      <point x="939" y="1130"/>
      <point x="1021" y="1033"/>
      <point x="1023" y="840" type="curve"/>
      <point x="1083" y="994"/>
      <point x="1206" y="1130"/>
      <point x="1409" y="1130" type="curve" smooth="yes"/>
      <point x="1582" y="1130"/>
      <point x="1657" y="1011"/>
      <point x="1657" y="832" type="curve" smooth="yes"/>
      <point x="1657" y="801"/>
      <point x="1654" y="768"/>
      <point x="1649" y="732" type="curve" smooth="yes"/>
      <point x="1544" y="0" type="line"/>
      <point x="1379" y="0" type="line"/>
      <point x="1483" y="728" type="line" smooth="yes"/>
      <point x="1488" y="769"/>
      <point x="1491" y="804"/>
    </contour>
  </outline>
</glyph>
<glyph name="q" format="1">
  <advance width="1206"/>
  <unicode hex="0071"/>
  <outline>
    <contour>
      <point x="278" y="408" type="curve" smooth="yes"/>
      <point x="278" y="253"/>
      <point x="321" y="107"/>
      <point x="476" y="107" type="curve" smooth="yes"/>
      <point x="620" y="107"/>
      <point x="732" y="202"/>
      <point x="801" y="276" type="curve"/>
      <point x="877" y="822" type="line"/>
      <point x="819" y="900"/>
      <point x="726" y="1002"/>
      <point x="590" y="1002" type="curve" smooth="yes"/>
      <point x="405" y="1002"/>
      <point x="278" y="733"/>
    </contour>
    <contour>
      <point x="858" y="-480" type="line"/>
      <point x="690" y="-502" type="line"/>
      <point x="785" y="161" type="line"/>
      <point x="716" y="78"/>
      <point x="592" y="-21"/>
      <point x="454" y="-21" type="curve" smooth="yes"/>
      <point x="209" y="-21"/>
      <point x="118" y="174"/>
      <point x="118" y="418" type="curve" smooth="yes"/>
      <point x="118" y="760"/>
      <point x="267" y="1130"/>
      <point x="608" y="1130" type="curve" smooth="yes"/>
      <point x="765" y="1130"/>
      <point x="857" y="1020"/>
      <point x="908" y="918" type="curve"/>
      <point x="966" y="1110" type="line"/>
      <point x="1084" y="1110" type="line"/>
    </contour>
  </outline>
</glyph>
<glyph name="t" format="1">
  <advance width="872"/>
  <unicode hex="0074"/>
  <outline>
    <contour>
      <point x="390" y="555" type="move" name="center"/>
    </contour>
    <contour>
      <point x="390" y="0" type="move" name="bottom"/>
    </contour>
    <contour>
      <point x="188" y="224" type="curve" smooth="yes"/>
      <point x="188" y="253"/>
      <point x="192" y="295"/>
      <point x="200" y="350" type="curve" smooth="yes"/>
      <point x="295" y="1002" type="line"/>
      <point x="141" y="1002" type="line"/>
      <point x="151" y="1080" type="line"/>
      <point x="306" y="1080" type="line"/>
      <point x="374" y="1556" type="line"/>
      <point x="543" y="1602" type="line"/>
      <point x="470" y="1080" type="line"/>
      <point x="727" y="1080" type="line"/>
      <point x="715" y="1002" type="line"/>
      <point x="459" y="1002" type="line"/>
      <point x="362" y="331" type="line" smooth="yes"/>
      <point x="355" y="279"/>
      <point x="351" y="239"/>
      <point x="351" y="210" type="curve" smooth="yes"/>
      <point x="351" y="165"/>
      <point x="376" y="118"/>
      <point x="419" y="118" type="curve" smooth="yes"/>
      <point x="517" y="118"/>
      <point x="573" y="173"/>
      <point x="637" y="214" type="curve"/>
      <point x="709" y="110" type="line"/>
      <point x="615" y="53"/>
      <point x="537" y="-16"/>
      <point x="400" y="-16" type="curve" smooth="yes"/>
      <point x="265" y="-16"/>
      <point x="188" y="84"/>
    </contour>
  </outline>
</glyph>
<glyph name="x" format="1">
  <advance width="1196"/>
  <unicode hex="0078"/>
  <outline>
    <contour>
      <point x="405" y="1110" type="line"/>
      <point x="583" y="712" type="line"/>
      <point x="601" y="668" type="line"/>
      <point x="611" y="683"/>
      <point x="622" y="699"/>
      <point x="632" y="714" type="curve" smooth="yes"/>
      <point x="724" y="848"/>
      <point x="820" y="977"/>
      <point x="913" y="1110" type="curve"/>
      <point x="1091" y="1110" type="line"/>
      <point x="950" y="925"/>
      <point x="808" y="741"/>
      <point x="667" y="556" type="curve"/>
      <point x="758" y="369"/>
      <point x="843" y="186"/>
      <point x="935" y="0" type="curve"/>
      <point x="781" y="0" type="line"/>
      <point x="748" y="76"/>
      <point x="653" y="269"/>
      <point x="607" y="373" type="curve"/>
      <point x="581" y="432" type="line"/>
      <point x="536" y="371" type="line"/>
      <point x="442" y="243"/>
      <point x="365" y="144"/>
      <point x="261" y="0" type="curve"/>
      <point x="85" y="0" type="line"/>
      <point x="228" y="185"/>
      <point x="371" y="370"/>
      <point x="513" y="556" type="curve"/>
      <point x="421" y="740"/>
      <point x="337" y="925"/>
      <point x="246" y="1110" type="curve"/>
    </contour>
  </outline>
</glyph>
<glyph name="y" format="1">
  <advance width="1175"/>
  <unicode hex="0079"/>
  <outline>
    <contour>
      <point x="68" y="-458" type="curve"/>
      <point x="40" y="-334" type="line"/>
      <point x="275" y="-258"/>
      <point x="341" y="-191"/>
      <point x="424" y="0" type="curve"/>
      <point x="192" y="1110" type="line"/>
      <point x="346" y="1110" type="line"/>
      <point x="471" y="452" type="line"/>
      <point x="500" y="304"/>
      <point x="527" y="169"/>
      <point x="527" y="164" type="curve"/>
      <point x="559" y="242"/>
      <point x="614" y="378"/>
      <point x="647" y="456" type="curve" smooth="yes"/>
      <point x="735" y="668"/>
      <point x="815" y="898"/>
      <point x="904" y="1110" type="curve"/>
      <point x="1078" y="1110" type="line"/>
      <point x="959" y="832"/>
      <point x="648" y="110"/>
      <point x="598" y="-1" type="curve" smooth="yes"/>
      <point x="462" y="-302"/>
      <point x="328" y="-393"/>
    </contour>
    <contour>
      <point x="489" y="1110" type="move" name="top"/>
    </contour>
  </outline>
</glyph>
<glyph name="z" format="1">
  <advance width="1045"/>
  <unicode hex="007A"/>
  <outline>
    <contour>
      <point x="447" y="1110" type="move" name="top"/>
    </contour>
    <contour>
      <point x="251" y="974" type="line"/>
      <point x="271" y="1110" type="line"/>
      <point x="931" y="1110" type="line"/>
      <point x="909" y="946" type="line"/>
      <point x="693" y="679"/>
      <point x="476" y="412"/>
      <point x="259" y="146" type="curve"/>
      <point x="795" y="146" type="line"/>
      <point x="775" y="0" type="line"/>
      <point x="91" y="0" type="line"/>
      <point x="111" y="164" type="line"/>
      <point x="331" y="433"/>
      <point x="551" y="703"/>
      <point x="769" y="974" type="curve"/>
    </contour>
  </outline>
</glyph>
<glyph name="braceleft" format="1">
  <advance width="834"/>
  <unicode hex="007B"/>
  <outline>
    <contour>
      <point x="377" y="392" type="curve" smooth="yes"/>
      <point x="377" y="314"/>
      <point x="356" y="223"/>
      <point x="356" y="145" type="curve" smooth="yes"/>
      <point x="356" y="92"/>
      <point x="364" y="44"/>
      <point x="386" y="8" type="curve" smooth="yes"/>
      <point x="413" y="-36"/>
      <point x="474" y="-41"/>
      <point x="545" y="-41" type="curve"/>
      <point x="520" y="-210" type="line"/>
      <point x="404" y="-210"/>
      <point x="328" y="-182"/>
      <point x="270" y="-124" type="curve" smooth="yes"/>
      <point x="217" y="-71"/>
      <point x="197" y="25"/>
      <point x="197" y="128" type="curve" smooth="yes"/>
      <point x="197" y="208"/>
      <point x="216" y="307"/>
      <point x="216" y="382" type="curve" smooth="yes"/>
      <point x="216" y="494"/>
      <point x="184" y="550"/>
      <point x="118" y="550" type="curve"/>
      <point x="145" y="739" type="line"/>
      <point x="231" y="739"/>
      <point x="287" y="835"/>
      <point x="314" y="1027" type="curve" smooth="yes"/>
      <point x="325" y="1104"/>
      <point x="341" y="1172"/>
      <point x="364" y="1229" type="curve" smooth="yes"/>
      <point x="430" y="1396"/>
      <point x="536" y="1499"/>
      <point x="760" y="1499" type="curve"/>
      <point x="737" y="1330" type="line"/>
      <point x="660" y="1330"/>
      <point x="601" y="1321"/>
      <point x="564" y="1280" type="curve" smooth="yes"/>
      <point x="504" y="1214"/>
      <point x="485" y="1118"/>
      <point x="468" y="1002" type="curve" smooth="yes"/>
      <point x="439" y="806"/>
      <point x="366" y="687"/>
      <point x="249" y="645" type="curve"/>
      <point x="326" y="612"/>
      <point x="377" y="516"/>
    </contour>
  </outline>
</glyph>
<glyph name="bar" format="1">
  <advance width="606"/>
  <unicode hex="007C"/>
  <outline>
    <contour>
      <point x="519" y="1696" type="line"/>
      <point x="265" y="-110" type="line"/>
      <point x="99" y="-110" type="line"/>
      <point x="353" y="1696" type="line"/>
    </contour>
  </outline>
</glyph>
<glyph name="asciitilde" format="1">
  <advance width="956"/>
  <unicode hex="007E"/>
  <outline>
    <contour>
      <point x="355" y="1388" type="curve" smooth="yes"/>
      <point x="302" y="1388"/>
      <point x="292" y="1329"/>
      <point x="285" y="1274" type="curve"/>
      <point x="139" y="1274" type="line"/>
      <point x="139" y="1280" type="line"/>
      <point x="162" y="1449"/>
      <point x="237" y="1534"/>
      <point x="363" y="1534" type="curve" smooth="yes"/>
      <point x="465" y="1534"/>
      <point x="533" y="1466"/>
      <point x="601" y="1430" type="curve" smooth="yes"/>
      <point x="626" y="1417"/>
      <point x="647" y="1410"/>
      <point x="665" y="1410" type="curve" smooth="yes"/>
      <point x="717" y="1410"/>
      <point x="728" y="1468"/>
      <point x="735" y="1520" type="curve"/>
      <point x="881" y="1520" type="line"/>
      <point x="881" y="1519"/>
      <point x="879" y="1515"/>
      <point x="879" y="1514" type="curve"/>
      <point x="858" y="1362"/>
      <point x="795" y="1281"/>
      <point x="689" y="1270" type="curve"/>
      <point x="685" y="1270"/>
      <point x="669" y="1268"/>
      <point x="665" y="1268" type="curve" smooth="yes"/>
      <point x="582" y="1268"/>
      <point x="487" y="1325"/>
      <point x="431" y="1358" type="curve" smooth="yes"/>
      <point x="397" y="1378"/>
      <point x="372" y="1388"/>
    </contour>
  </outline>
</glyph>
<glyph name="cent" format="1">
  <advance width="1121"/>
  <unicode hex="00A2"/>
  <outline>
    <contour>
      <point x="544" y="122" type="curve"/>
      <point x="672" y="1046" type="line"/>
      <point x="395" y="1035"/>
      <point x="289" y="755"/>
      <point x="289" y="436" type="curve" smooth="yes"/>
      <point x="289" y="241"/>
      <point x="368" y="135"/>
    </contour>
    <contour>
      <point x="604" y="-136" type="line"/>
      <point x="506" y="-136" type="line"/>
      <point x="522" y="-20" type="line"/>
      <point x="260" y="-13"/>
      <point x="120" y="164"/>
      <point x="120" y="440" type="curve" smooth="yes"/>
      <point x="120" y="842"/>
      <point x="308" y="1182"/>
      <point x="692" y="1190" type="curve"/>
      <point x="708" y="1298" type="line"/>
      <point x="808" y="1298" type="line"/>
      <point x="792" y="1184" type="line"/>
      <point x="870" y="1175"/>
      <point x="950" y="1149"/>
      <point x="1000" y="1122" type="curve"/>
      <point x="1004" y="978" type="line"/>
      <point x="957" y="1006"/>
      <point x="850" y="1035"/>
      <point x="770" y="1042" type="curve"/>
      <point x="642" y="122" type="line"/>
      <point x="733" y="129"/>
      <point x="833" y="160"/>
      <point x="894" y="188" type="curve"/>
      <point x="848" y="38" type="line"/>
      <point x="789" y="10"/>
      <point x="714" y="-9"/>
      <point x="622" y="-18" type="curve"/>
    </contour>
  </outline>
</glyph>
<glyph name="currency" format="1">
  <advance width="1354"/>
  <unicode hex="00A4"/>
  <outline>
    <contour>
      <point x="1094" y="1064" type="curve" smooth="yes"/>
      <point x="1094" y="953"/>
      <point x="1058" y="850"/>
      <point x="985" y="757" type="curve"/>
      <point x="1144" y="555" type="line"/>
      <point x="1011" y="430" type="line"/>
      <point x="851" y="633" type="line"/>
      <point x="775" y="583"/>
      <point x="697" y="558"/>
      <point x="617" y="558" type="curve" smooth="yes"/>
      <point x="545" y="558"/>
      <point x="481" y="578"/>
      <point x="425" y="619" type="curve"/>
      <point x="223" y="430" type="line"/>
      <point x="125" y="555" type="line"/>
      <point x="325" y="742" type="line"/>
      <point x="302" y="791"/>
      <point x="290" y="845"/>
      <point x="290" y="905" type="curve" smooth="yes"/>
      <point x="290" y="1014"/>
      <point x="326" y="1115"/>
      <point x="397" y="1208" type="curve"/>
      <point x="244" y="1402" type="line"/>
      <point x="377" y="1526" type="line"/>
      <point x="530" y="1333" type="line"/>
      <point x="605" y="1384"/>
      <point x="684" y="1409"/>
      <point x="767" y="1409" type="curve" smooth="yes"/>
      <point x="843" y="1409"/>
      <point x="910" y="1386"/>
      <point x="967" y="1341" type="curve"/>
      <point x="1165" y="1526" type="line"/>
      <point x="1263" y="1402" type="line"/>
      <point x="1063" y="1215" type="line"/>
      <point x="1084" y="1170"/>
      <point x="1094" y="1119"/>
    </contour>
    <contour>
      <point x="959" y="1032" type="curve" smooth="yes"/>
      <point x="959" y="1160"/>
      <point x="865" y="1266"/>
      <point x="740" y="1266" type="curve" smooth="yes"/>
      <point x="662" y="1266"/>
      <point x="589" y="1232"/>
      <point x="523" y="1164" type="curve" smooth="yes"/>
      <point x="457" y="1096"/>
      <point x="424" y="1020"/>
      <point x="424" y="935" type="curve" smooth="yes"/>
      <point x="424" y="806"/>
      <point x="519" y="699"/>
      <point x="644" y="699" type="curve" smooth="yes"/>
      <point x="765" y="699"/>
      <point x="863" y="786"/>
      <point x="913" y="870" type="curve" smooth="yes"/>
      <point x="944" y="922"/>
      <point x="959" y="976"/>
    </contour>
  </outline>
</glyph>
<glyph name="yen" format="1">
  <advance width="1268"/>
  <unicode hex="00A5"/>
  <outline>
    <contour>
      <point x="162" y="1579" type="line"/>
      <point x="324" y="1579" type="line"/>
      <point x="581" y="848" type="line"/>
      <point x="1053" y="1579" type="line"/>
      <point x="1215" y="1579" type="line"/>
      <point x="682" y="747" type="line"/>
      <point x="935" y="747" type="line"/>
      <point x="917" y="616" type="line"/>
      <point x="641" y="616" type="line"/>
      <point x="623" y="486" type="line"/>
      <point x="899" y="486" type="line"/>
      <point x="880" y="355" type="line"/>
      <point x="605" y="355" type="line"/>
      <point x="555" y="0" type="line"/>
      <point x="378" y="0" type="line"/>
      <point x="428" y="355" type="line"/>
      <point x="147" y="355" type="line"/>
      <point x="166" y="486" type="line"/>
      <point x="447" y="486" type="line"/>
      <point x="465" y="616" type="line"/>
      <point x="184" y="616" type="line"/>
      <point x="202" y="747" type="line"/>
      <point x="461" y="747" type="line"/>
    </contour>
  </outline>
</glyph>
<glyph name="brokenbar" format="1">
  <advance width="598"/>
  <unicode hex="00A6"/>
  <outline>
    <contour>
      <point x="378" y="690" type="line"/>
      <point x="282" y="0" type="line"/>
      <point x="106" y="0" type="line"/>
      <point x="204" y="688" type="line"/>
    </contour>
    <contour>
      <point x="504" y="1580" type="line"/>
      <point x="406" y="888" type="line"/>
      <point x="230" y="888" type="line"/>
      <point x="326" y="1574" type="line"/>
    </contour>
  </outline>
</glyph>
<glyph name="copyright" format="1">
  <advance width="1825"/>
  <unicode hex="00A9"/>
  <outline>
    <contour>
      <point x="1242" y="1246" type="curve"/>
      <point x="1234" y="1134" type="line"/>
      <point x="1186" y="1160"/>
      <point x="1075" y="1190"/>
      <point x="990" y="1190" type="curve" smooth="yes"/>
      <point x="722" y="1190"/>
      <point x="627" y="942"/>
      <point x="627" y="677" type="curve" smooth="yes"/>
      <point x="627" y="492"/>
      <point x="711" y="400"/>
      <point x="878" y="400" type="curve" smooth="yes"/>
      <point x="962" y="400"/>
      <point x="1049" y="423"/>
      <point x="1140" y="468" type="curve"/>
      <point x="1116" y="352" type="line"/>
      <point x="1020" y="304"/>
      <point x="933" y="280"/>
      <point x="856" y="280" type="curve" smooth="yes"/>
      <point x="607" y="280"/>
      <point x="490" y="437"/>
      <point x="490" y="682" type="curve" smooth="yes"/>
      <point x="490" y="1022"/>
      <point x="671" y="1308"/>
      <point x="1000" y="1308" type="curve" smooth="yes"/>
      <point x="1082" y="1308"/>
      <point x="1198" y="1279"/>
    </contour>
    <contour>
      <point x="802" y="-18" type="curve" smooth="yes"/>
      <point x="400" y="-18"/>
      <point x="133" y="264"/>
      <point x="133" y="666" type="curve" smooth="yes"/>
      <point x="133" y="1184"/>
      <point x="519" y="1610"/>
      <point x="1030" y="1610" type="curve" smooth="yes"/>
      <point x="1438" y="1610"/>
      <point x="1701" y="1320"/>
      <point x="1701" y="914" type="curve" smooth="yes"/>
      <point x="1701" y="400"/>
      <point x="1311" y="-18"/>
    </contour>
    <contour>
      <point x="1568" y="903" type="curve" smooth="yes"/>
      <point x="1568" y="1245"/>
      <point x="1360" y="1490"/>
      <point x="1016" y="1490" type="curve" smooth="yes"/>
      <point x="576" y="1490"/>
      <point x="264" y="1117"/>
      <point x="264" y="678" type="curve" smooth="yes"/>
      <point x="264" y="343"/>
      <point x="487" y="100"/>
      <point x="822" y="100" type="curve" smooth="yes"/>
      <point x="1257" y="100"/>
      <point x="1568" y="464"/>
    </contour>
  </outline>
</glyph>
<glyph name="guillemotleft" format="1">
  <advance width="1441"/>
  <unicode hex="00AB"/>
  <outline>
    <contour>
      <point x="135" y="666" type="line"/>
      <point x="755" y="1049" type="line"/>
      <point x="726" y="842" type="line"/>
      <point x="274" y="577" type="line"/>
      <point x="651" y="306" type="line"/>
      <point x="622" y="99" type="line"/>
      <point x="109" y="481" type="line"/>
    </contour>
    <contour>
      <point x="700" y="666" type="line"/>
      <point x="1320" y="1049" type="line"/>
      <point x="1291" y="842" type="line"/>
      <point x="839" y="577" type="line"/>
      <point x="1216" y="306" type="line"/>
      <point x="1187" y="99" type="line"/>
      <point x="674" y="481" type="line"/>
    </contour>
  </outline>
</glyph>
<glyph name="logicalnot" format="1">
  <advance width="1524"/>
  <unicode hex="00AC"/>
  <outline>
    <contour>
      <point x="151" y="1174" type="line"/>
      <point x="1410" y="1174" type="line"/>
      <point x="1292" y="338" type="line"/>
      <point x="1129" y="338" type="line"/>
      <point x="1225" y="1023" type="line"/>
      <point x="129" y="1023" type="line"/>
    </contour>
  </outline>
</glyph>
<glyph name="uni00AD" format="1">
  <advance width="796"/>
  <unicode hex="00AD"/>
  <outline>
    <contour>
      <point x="704" y="508" type="line"/>
      <point x="158" y="508" type="line"/>
      <point x="176" y="638" type="line"/>
      <point x="722" y="638" type="line"/>
    </contour>
  </outline>
</glyph>
<glyph name="registered" format="1">
  <advance width="1271"/>
  <unicode hex="00AE"/>
  <outline>
    <contour>
      <point x="714" y="1538" type="curve" smooth="yes"/>
      <point x="451" y="1538"/>
      <point x="237" y="1308"/>
      <point x="237" y="1039" type="curve" smooth="yes"/>
      <point x="237" y="829"/>
      <point x="385" y="676"/>
      <point x="594" y="676" type="curve" smooth="yes"/>
      <point x="867" y="676"/>
      <point x="1073" y="898"/>
      <point x="1073" y="1172" type="curve" smooth="yes"/>
      <point x="1073" y="1383"/>
      <point x="925" y="1538"/>
    </contour>
    <contour>
      <point x="582" y="584" type="curve" smooth="yes"/>
      <point x="329" y="584"/>
      <point x="143" y="779"/>
      <point x="143" y="1032" type="curve" smooth="yes"/>
      <point x="143" y="1361"/>
      <point x="402" y="1632"/>
      <point x="728" y="1632" type="curve" smooth="yes"/>
      <point x="984" y="1632"/>
      <point x="1167" y="1441"/>
      <point x="1167" y="1185" type="curve" smooth="yes"/>
      <point x="1167" y="853"/>
      <point x="911" y="584"/>
    </contour>
    <contour>
      <point x="874" y="1271" type="curve" smooth="yes"/>
      <point x="874" y="1154"/>
      <point x="794" y="1106"/>
      <point x="696" y="1082" type="curve"/>
      <point x="700" y="1078"/>
      <point x="741" y="1021"/>
      <point x="744" y="1016" type="curve" smooth="yes"/>
      <point x="830" y="856" type="line"/>
      <point x="734" y="808" type="line"/>
      <point x="726" y="825"/>
      <point x="630" y="1056"/>
      <point x="622" y="1072" type="curve"/>
      <point x="578" y="1072" type="line"/>
      <point x="542" y="830" type="line"/>
      <point x="450" y="830" type="line"/>
      <point x="532" y="1402" type="line"/>
      <point x="634" y="1402" type="line" smooth="yes"/>
      <point x="767" y="1402"/>
      <point x="874" y="1383"/>
    </contour>
    <contour>
      <point x="614" y="1328" type="line"/>
      <point x="590" y="1146" type="line"/>
      <point x="640" y="1146" type="line" smooth="yes"/>
      <point x="730" y="1146"/>
      <point x="783" y="1178"/>
      <point x="783" y="1264" type="curve" smooth="yes"/>
      <point x="783" y="1325"/>
      <point x="719" y="1328"/>
      <point x="641" y="1328" type="curve" smooth="yes"/>
    </contour>
  </outline>
</glyph>
<glyph name="degree" format="1">
  <advance width="645"/>
  <unicode hex="00B0"/>
  <outline>
    <contour>
      <point x="137" y="888" type="curve" smooth="yes"/>
      <point x="137" y="1018"/>
      <point x="235" y="1127"/>
      <point x="363" y="1127" type="curve" smooth="yes"/>
      <point x="463" y="1127"/>
      <point x="526" y="1057"/>
      <point x="526" y="958" type="curve" smooth="yes"/>
      <point x="526" y="827"/>
      <point x="433" y="716"/>
      <point x="305" y="716" type="curve" smooth="yes"/>
      <point x="203" y="716"/>
      <point x="137" y="788"/>
    </contour>
    <contour>
      <point x="457" y="943" type="curve" smooth="yes"/>
      <point x="457" y="1006"/>
      <point x="416" y="1059"/>
      <point x="352" y="1059" type="curve" smooth="yes"/>
      <point x="273" y="1059"/>
      <point x="205" y="980"/>
      <point x="205" y="900" type="curve" smooth="yes"/>
      <point x="205" y="836"/>
      <point x="249" y="783"/>
      <point x="314" y="783" type="curve" smooth="yes"/>
      <point x="391" y="783"/>
      <point x="457" y="863"/>
    </contour>
  </outline>
</glyph>
<glyph name="acute" format="1">
  <advance width="739"/>
  <unicode hex="00B4"/>
  <outline>
    <contour>
      <point x="449.5" y="1110" type="move" name="_top"/>
    </contour>
    <contour>
      <point x="366" y="352" type="line"/>
      <point x="234" y="352" type="line"/>
      <point x="425" y="974" type="line"/>
      <point x="665" y="974" type="line"/>
    </contour>
  </outline>
</glyph>
<glyph name="uni00B5" format="1">
  <advance width="1225"/>
  <unicode hex="00B5"/>
  <outline>
    <contour>
      <point x="459" y="-32" type="curve" smooth="yes"/>
      <point x="367" y="-32"/>
      <point x="298" y="0"/>
      <point x="273" y="62" type="curve"/>
      <point x="225" y="-290" type="line"/>
      <point x="86" y="-270" type="line"/>
      <point x="276" y="1110" type="line"/>
      <point x="421" y="1110" type="line"/>
      <point x="325" y="416" type="line" smooth="yes"/>
      <point x="319" y="379"/>
      <point x="316" y="343"/>
      <point x="316" y="310" type="curve" smooth="yes"/>
      <point x="316" y="196"/>
      <point x="355" y="110"/>
      <point x="481" y="110" type="curve" smooth="yes"/>
      <point x="633" y="110"/>
      <point x="742" y="195"/>
      <point x="815" y="272" type="curve"/>
      <point x="931" y="1110" type="line"/>
      <point x="1103" y="1110" type="line"/>
      <point x="947" y="4" type="line"/>
      <point x="817" y="-12" type="line"/>
      <point x="819" y="156" type="line"/>
      <point x="701" y="31"/>
      <point x="581" y="-32"/>
    </contour>
  </outline>
</glyph>
<glyph name="paragraph" format="1">
  <advance width="1210"/>
  <unicode hex="00B6"/>
  <outline>
    <contour>
      <point x="136" y="1190" type="curve" smooth="yes"/>
      <point x="136" y="1500"/>
      <point x="371" y="1577"/>
      <point x="682" y="1577" type="curve" smooth="yes"/>
      <point x="1116" y="1578" type="line"/>
      <point x="894" y="0" type="line"/>
      <point x="721" y="0" type="line"/>
      <point x="922" y="1428" type="line"/>
      <point x="796" y="1428" type="line"/>
      <point x="595" y="0" type="line"/>
      <point x="419" y="0" type="line"/>
      <point x="546" y="905" type="line"/>
      <point x="326" y="905"/>
      <point x="136" y="970"/>
    </contour>
  </outline>
</glyph>
<glyph name="ordmasculine" format="1">
  <advance width="1077"/>
  <unicode hex="00BA"/>
  <outline>
    <contour>
      <point x="504" y="670" type="curve" smooth="yes"/>
      <point x="280" y="670"/>
      <point x="170" y="822"/>
      <point x="170" y="1045" type="curve" smooth="yes"/>
      <point x="170" y="1356"/>
      <point x="325" y="1638"/>
      <point x="640" y="1638" type="curve" smooth="yes"/>
      <point x="865" y="1638"/>
      <point x="975" y="1483"/>
      <point x="975" y="1258" type="curve" smooth="yes"/>
      <point x="975" y="945"/>
      <point x="817" y="670"/>
    </contour>
    <contour>
      <point x="829" y="1255" type="curve" smooth="yes"/>
      <point x="829" y="1407"/>
      <point x="771" y="1512"/>
      <point x="623" y="1512" type="curve" smooth="yes"/>
      <point x="398" y="1512"/>
      <point x="315" y="1272"/>
      <point x="315" y="1050" type="curve" smooth="yes"/>
      <point x="315" y="899"/>
      <point x="375" y="795"/>
      <point x="522" y="795" type="curve" smooth="yes"/>
      <point x="747" y="795"/>
      <point x="829" y="1033"/>
    </contour>
    <contour>
      <point x="785" y="386" type="line"/>
      <point x="148" y="386" type="line"/>
      <point x="167" y="515" type="line"/>
      <point x="803" y="515" type="line"/>
    </contour>
  </outline>
</glyph>
<glyph name="AE" format="1">
  <advance width="2176"/>
  <unicode hex="00C6"/>
  <outline>
    <contour>
      <point x="975" y="1574" type="move" name="top"/>
    </contour>
    <contour>
      <point x="590" y="486" type="line"/>
      <point x="1042" y="486" type="line"/>
      <point x="1168" y="1416" type="line"/>
    </contour>
    <contour>
      <point x="260" y="0" type="line"/>
      <point x="70" y="0" type="line"/>
      <point x="1114" y="1574" type="line"/>
      <point x="2097" y="1574" type="line"/>
      <point x="2077" y="1436" type="line"/>
      <point x="1342" y="1436" type="line"/>
      <point x="1266" y="890" type="line"/>
      <point x="1909" y="890" type="line"/>
      <point x="1895" y="776" type="line"/>
      <point x="1250" y="776" type="line"/>
      <point x="1160" y="144" type="line"/>
      <point x="1907" y="144" type="line"/>
      <point x="1889" y="0" type="line"/>
      <point x="973" y="0" type="line"/>
      <point x="1027" y="382" type="line"/>
      <point x="507" y="382" type="line"/>
    </contour>
  </outline>
</glyph>
<glyph name="Eth" format="1">
  <advance width="1515"/>
  <unicode hex="00D0"/>
  <outline>
    <contour>
      <point x="1207" y="1012" type="curve" smooth="yes"/>
      <point x="1207" y="1286"/>
      <point x="1110" y="1423"/>
      <point x="850" y="1423" type="curve" smooth="yes"/>
      <point x="517" y="1423" type="line"/>
      <point x="441" y="881" type="line"/>
      <point x="810" y="881" type="line"/>
      <point x="792" y="737" type="line"/>
      <point x="421" y="737" type="line"/>
      <point x="339" y="149" type="line"/>
      <point x="672" y="149" type="line" smooth="yes"/>
      <point x="880" y="149"/>
      <point x="999" y="264"/>
      <point x="1075" y="400" type="curve" smooth="yes"/>
      <point x="1164" y="560"/>
      <point x="1207" y="771"/>
    </contour>
    <contour>
      <point x="1391" y="1010" type="curve" smooth="yes"/>
      <point x="1391" y="635"/>
      <point x="1281" y="321"/>
      <point x="1075" y="144" type="curve" smooth="yes"/>
      <point x="978" y="61"/>
      <point x="827" y="0"/>
      <point x="649" y="0" type="curve" smooth="yes"/>
      <point x="136" y="0" type="line"/>
      <point x="241" y="737" type="line"/>
      <point x="140" y="737" type="line"/>
      <point x="158" y="881" type="line"/>
      <point x="261" y="881" type="line"/>
      <point x="360" y="1574" type="line"/>
      <point x="873" y="1574" type="line" smooth="yes"/>
      <point x="1218" y="1574"/>
      <point x="1391" y="1386"/>
    </contour>
  </outline>
</glyph>
<glyph name="Thorn" format="1">
  <advance width="1376"/>
  <unicode hex="00DE"/>
  <outline>
    <contour>
      <point x="1094" y="1059" type="curve" smooth="yes"/>
      <point x="1094" y="1192"/>
      <point x="1034" y="1243"/>
      <point x="920" y="1274" type="curve" smooth="yes"/>
      <point x="855" y="1291"/>
      <point x="766" y="1300"/>
      <point x="653" y="1300" type="curve" smooth="yes"/>
      <point x="471" y="1300" type="line"/>
      <point x="379" y="650" type="line"/>
      <point x="528" y="650" type="line" smooth="yes"/>
      <point x="734" y="650"/>
      <point x="879" y="680"/>
      <point x="965" y="740" type="curve" smooth="yes"/>
      <point x="1051" y="800"/>
      <point x="1094" y="906"/>
    </contour>
    <contour>
      <point x="1265" y="1080" type="curve" smooth="yes"/>
      <point x="1265" y="876"/>
      <point x="1202" y="729"/>
      <point x="1075" y="639" type="curve" smooth="yes"/>
      <point x="948" y="549"/>
      <point x="760" y="504"/>
      <point x="509" y="504" type="curve" smooth="yes"/>
      <point x="359" y="504" type="line"/>
      <point x="289" y="0" type="line"/>
      <point x="107" y="0" type="line"/>
      <point x="329" y="1580" type="line"/>
      <point x="509" y="1580" type="line"/>
      <point x="491" y="1444" type="line"/>
      <point x="673" y="1444" type="line" smooth="yes"/>
      <point x="884" y="1444"/>
      <point x="1035" y="1415"/>
      <point x="1127" y="1358" type="curve" smooth="yes"/>
      <point x="1219" y="1301"/>
      <point x="1265" y="1208"/>
    </contour>
  </outline>
</glyph>
<glyph name="eth" format="1">
  <advance width="1240"/>
  <unicode hex="00F0"/>
  <outline>
    <contour>
      <point x="467" y="-20" type="curve" smooth="yes"/>
      <point x="217" y="-20"/>
      <point x="117" y="161"/>
      <point x="117" y="411" type="curve" smooth="yes"/>
      <point x="117" y="755"/>
      <point x="269" y="1134"/>
      <point x="608" y="1134" type="curve" smooth="yes"/>
      <point x="738" y="1134"/>
      <point x="854" y="1054"/>
      <point x="900" y="974" type="curve"/>
      <point x="885" y="1099"/>
      <point x="845" y="1223"/>
      <point x="780" y="1346" type="curve"/>
      <point x="562" y="1268" type="line"/>
      <point x="540" y="1367" type="line"/>
      <point x="728" y="1434" type="line"/>
      <point x="677" y="1512"/>
      <point x="622" y="1578"/>
      <point x="562" y="1631" type="curve"/>
      <point x="649" y="1743" type="line"/>
      <point x="738" y="1679"/>
      <point x="815" y="1594"/>
      <point x="878" y="1488" type="curve"/>
      <point x="1129" y="1578" type="line"/>
      <point x="1152" y="1479" type="line"/>
      <point x="927" y="1399" type="line"/>
      <point x="1002" y="1240"/>
      <point x="1040" y="1065"/>
      <point x="1040" y="874" type="curve" smooth="yes"/>
      <point x="1040" y="345"/>
      <point x="826" y="-20"/>
    </contour>
    <contour>
      <point x="864" y="716" type="curve" smooth="yes"/>
      <point x="864" y="876"/>
      <point x="784" y="992"/>
      <point x="628" y="992" type="curve" smooth="yes"/>
      <point x="353" y="992"/>
      <point x="278" y="688"/>
      <point x="278" y="408" type="curve" smooth="yes"/>
      <point x="278" y="218"/>
      <point x="347" y="123"/>
      <point x="484" y="123" type="curve" smooth="yes"/>
      <point x="760" y="123"/>
      <point x="864" y="424"/>
    </contour>
  </outline>
</glyph>
<glyph name="divide" format="1">
  <advance width="893"/>
  <unicode hex="00F7"/>
  <outline>
    <contour>
      <point x="127" y="639" type="line"/>
      <point x="774" y="639" type="line"/>
      <point x="756" y="508" type="line"/>
      <point x="109" y="508" type="line"/>
    </contour>
    <contour>
      <point x="491" y="1002" type="curve" smooth="yes"/>
      <point x="547" y="1002"/>
      <point x="587" y="953"/>
      <point x="587" y="896" type="curve" smooth="yes"/>
      <point x="587" y="824"/>
      <point x="525" y="746"/>
      <point x="455" y="746" type="curve" smooth="yes"/>
      <point x="396" y="746"/>
      <point x="355" y="794"/>
      <point x="355" y="854" type="curve" smooth="yes"/>
      <point x="355" y="927"/>
      <point x="418" y="1002"/>
    </contour>
    <contour>
      <point x="421" y="397" type="curve" smooth="yes"/>
      <point x="477" y="397"/>
      <point x="517" y="348"/>
      <point x="517" y="291" type="curve" smooth="yes"/>
      <point x="517" y="219"/>
      <point x="455" y="141"/>
      <point x="385" y="141" type="curve" smooth="yes"/>
      <point x="326" y="141"/>
      <point x="285" y="189"/>
      <point x="285" y="249" type="curve" smooth="yes"/>
      <point x="285" y="322"/>
      <point x="348" y="397"/>
    </contour>
  </outline>
</glyph>
<glyph name="OE" format="1">
  <advance width="2809"/>
  <unicode hex="0152"/>
  <outline>
    <contour>
      <point x="1345" y="1574" type="move" name="top"/>
    </contour>
    <contour>
      <point x="1808" y="144" type="line"/>
      <point x="2540" y="144" type="line"/>
      <point x="2522" y="0" type="line"/>
      <point x="1606" y="0" type="line"/>
      <point x="1830" y="1574" type="line"/>
      <point x="2730" y="1574" type="line"/>
      <point x="2710" y="1436" type="line"/>
      <point x="1990" y="1436" type="line"/>
      <point x="1914" y="890" type="line"/>
      <point x="2542" y="890" type="line"/>
      <point x="2528" y="776" type="line"/>
      <point x="1898" y="776" type="line"/>
    </contour>
    <contour>
      <point x="320" y="558" type="curve" smooth="yes"/>
      <point x="320" y="282"/>
      <point x="544" y="270"/>
      <point x="668" y="110" type="curve"/>
      <point x="869" y="110"/>
      <point x="983" y="228"/>
      <point x="1057" y="360" type="curve" smooth="yes"/>
      <point x="1153" y="531"/>
      <point x="1202" y="757"/>
      <point x="1202" y="1018" type="curve" smooth="yes"/>
      <point x="1202" y="1293"/>
      <point x="1113" y="1458"/>
      <point x="858" y="1458" type="curve" smooth="yes"/>
      <point x="656" y="1458"/>
      <point x="541" y="1343"/>
      <point x="466" y="1212" type="curve" smooth="yes"/>
      <point x="369" y="1044"/>
      <point x="320" y="818"/>
    </contour>
    <contour>
      <point x="646" y="-40" type="curve" smooth="yes"/>
      <point x="286" y="-40"/>
      <point x="134" y="185"/>
      <point x="134" y="552" type="curve" smooth="yes"/>
      <point x="134" y="951"/>
      <point x="252" y="1283"/>
      <point x="471" y="1470" type="curve" smooth="yes"/>
      <point x="565" y="1550"/>
      <point x="708" y="1610"/>
      <point x="878" y="1610" type="curve" smooth="yes"/>
      <point x="1235" y="1610"/>
      <point x="1388" y="1377"/>
      <point x="1388" y="1014" type="curve" smooth="yes"/>
      <point x="1388" y="616"/>
      <point x="1272" y="284"/>
      <point x="1053" y="99" type="curve" smooth="yes"/>
      <point x="959" y="19"/>
      <point x="816" y="-40"/>
    </contour>
  </outline>
</glyph>
<glyph name="oe" format="1">
  <advance width="2248"/>
  <unicode hex="0153"/>
  <outline>
    <contour>
      <point x="1070" y="1110" type="move" name="top"/>
    </contour>
    <contour>
      <point x="1232" y="412" type="curve" smooth="yes"/>
      <point x="1232" y="620"/>
      <point x="1314" y="806"/>
      <point x="1414" y="922" type="curve" smooth="yes"/>
      <point x="1505" y="1027"/>
      <point x="1649" y="1130"/>
      <point x="1827" y="1130" type="curve" smooth="yes"/>
      <point x="1985" y="1130"/>
      <point x="2120" y="1038"/>
      <point x="2120" y="890" type="curve" smooth="yes"/>
      <point x="2120" y="823"/>
      <point x="2107" y="766"/>
      <point x="2079" y="716" type="curve" smooth="yes"/>
      <point x="2001" y="577"/>
      <point x="1826" y="517"/>
      <point x="1612" y="517" type="curve" smooth="yes"/>
      <point x="1601" y="517" type="line"/>
      <point x="1396" y="516" type="line"/>
      <point x="1392" y="478"/>
      <point x="1390" y="443"/>
      <point x="1390" y="409" type="curve" smooth="yes"/>
      <point x="1390" y="227"/>
      <point x="1452" y="110"/>
      <point x="1632" y="110" type="curve" smooth="yes"/>
      <point x="1698" y="110"/>
      <point x="1767" y="133"/>
      <point x="1839" y="180" type="curve" smooth="yes"/>
      <point x="1945" y="250" type="line"/>
      <point x="2012" y="148" type="line"/>
      <point x="1877" y="62" type="line" smooth="yes"/>
      <point x="1800" y="14"/>
      <point x="1729" y="-21"/>
      <point x="1602" y="-21" type="curve" smooth="yes"/>
      <point x="1355" y="-21"/>
      <point x="1232" y="160"/>
    </contour>
    <contour>
      <point x="1416" y="616" type="curve"/>
      <point x="1617" y="617" type="line" smooth="yes"/>
      <point x="1802" y="622"/>
      <point x="1978" y="681"/>
      <point x="1978" y="870" type="curve" smooth="yes"/>
      <point x="1978" y="957"/>
      <point x="1922" y="999"/>
      <point x="1829" y="999" type="curve" smooth="yes"/>
      <point x="1630" y="999"/>
      <point x="1469" y="780"/>
    </contour>
    <contour>
      <point x="662" y="1130" type="curve" smooth="yes"/>
      <point x="930" y="1130"/>
      <point x="1046" y="946"/>
      <point x="1046" y="680" type="curve" smooth="yes"/>
      <point x="1046" y="444"/>
      <point x="967" y="254"/>
      <point x="851" y="128" type="curve" smooth="yes"/>
      <point x="774" y="45"/>
      <point x="654" y="-21"/>
      <point x="500" y="-21" type="curve" smooth="yes"/>
      <point x="234" y="-21"/>
      <point x="116" y="161"/>
      <point x="116" y="426" type="curve" smooth="yes"/>
      <point x="116" y="536"/>
      <point x="137" y="630"/>
      <point x="165" y="724" type="curve" smooth="yes"/>
      <point x="199" y="836"/>
      <point x="260" y="931"/>
      <point x="334" y="1005" type="curve" smooth="yes"/>
      <point x="406" y="1077"/>
      <point x="522" y="1130"/>
    </contour>
    <contour>
      <point x="278" y="426" type="curve" smooth="yes"/>
      <point x="278" y="243"/>
      <point x="436" y="220"/>
      <point x="520" y="110" type="curve"/>
      <point x="679" y="110"/>
      <point x="759" y="213"/>
      <point x="812" y="322" type="curve" smooth="yes"/>
      <point x="858" y="418"/>
      <point x="884" y="549"/>
      <point x="884" y="682" type="curve" smooth="yes"/>
      <point x="884" y="893"/>
      <point x="807" y="998"/>
      <point x="653" y="998" type="curve" smooth="yes"/>
      <point x="492" y="998"/>
      <point x="410" y="894"/>
      <point x="355" y="785" type="curve" smooth="yes"/>
      <point x="307" y="689"/>
      <point x="278" y="561"/>
    </contour>
  </outline>
</glyph>
<glyph name="tilde" format="1">
  <advance width="467"/>
  <unicode hex="02DC"/>
  <outline>
    <contour>
      <point x="36" y="1110" type="move" name="_top"/>
    </contour>
    <contour>
      <point x="-119" y="242" type="curve" smooth="yes"/>
      <point x="-172" y="242"/>
      <point x="-182" y="183"/>
      <point x="-189" y="128" type="curve"/>
      <point x="-335" y="128" type="line"/>
      <point x="-335" y="134" type="line"/>
      <point x="-312" y="303"/>
      <point x="-237" y="388"/>
      <point x="-111" y="388" type="curve" smooth="yes"/>
      <point x="-9" y="388"/>
      <point x="58" y="320"/>
      <point x="126" y="284" type="curve" smooth="yes"/>
      <point x="151" y="271"/>
      <point x="173" y="264"/>
      <point x="191" y="264" type="curve" smooth="yes"/>
      <point x="243" y="264"/>
      <point x="254" y="322"/>
      <point x="261" y="374" type="curve"/>
      <point x="407" y="374" type="line"/>
      <point x="407" y="373"/>
      <point x="405" y="369"/>
      <point x="405" y="368" type="curve" smooth="yes"/>
      <point x="384" y="216"/>
      <point x="321" y="135"/>
      <point x="215" y="124" type="curve" smooth="yes"/>
      <point x="211" y="124"/>
      <point x="195" y="122"/>
      <point x="191" y="122" type="curve" smooth="yes"/>
      <point x="108" y="122"/>
      <point x="13" y="179"/>
      <point x="-43" y="212" type="curve" smooth="yes"/>
      <point x="-77" y="232"/>
      <point x="-102" y="242"/>
    </contour>
  </outline>
</glyph>
<glyph name="mu" format="1">
  <advance width="1225"/>
  <unicode hex="03BC"/>
  <outline>
    <contour>
      <point x="459" y="-32" type="curve" smooth="yes"/>
      <point x="367" y="-32"/>
      <point x="298" y="0"/>
      <point x="273" y="62" type="curve"/>
      <point x="225" y="-290" type="line"/>
      <point x="86" y="-270" type="line"/>
      <point x="276" y="1110" type="line"/>
      <point x="421" y="1110" type="line"/>
      <point x="325" y="416" type="line" smooth="yes"/>
      <point x="319" y="376"/>
      <point x="316" y="340"/>
      <point x="316" y="308" type="curve" smooth="yes"/>
      <point x="316" y="182"/>
      <point x="361" y="110"/>
      <point x="481" y="110" type="curve" smooth="yes"/>
      <point x="599" y="110"/>
      <point x="688" y="164"/>
      <point x="754" y="215" type="curve" smooth="yes"/>
      <point x="775" y="231"/>
      <point x="790" y="245"/>
      <point x="800" y="256" type="curve" smooth="yes"/>
      <point x="815" y="272" type="line"/>
      <point x="931" y="1110" type="line"/>
      <point x="1103" y="1110" type="line"/>
      <point x="947" y="4" type="line"/>
      <point x="817" y="-12" type="line"/>
      <point x="819" y="156" type="line"/>
      <point x="701" y="31"/>
      <point x="581" y="-32"/>
    </contour>
  </outline>
</glyph>
<glyph name="uni2011" format="1">
  <advance width="803"/>
  <unicode hex="2011"/>
  <outline>
    <contour>
      <point x="133" y="638" type="line"/>
      <point x="679" y="638" type="line"/>
      <point x="661" y="508" type="line"/>
      <point x="115" y="508" type="line"/>
    </contour>
  </outline>
</glyph>
<glyph name="endash" format="1">
  <advance width="1042"/>
  <unicode hex="2013"/>
  <outline>
    <contour>
      <point x="913" y="638" type="line"/>
      <point x="913" y="508" type="line"/>
      <point x="121" y="508" type="line"/>
      <point x="121" y="638" type="line"/>
    </contour>
  </outline>
</glyph>
<glyph name="emdash" format="1">
  <advance width="2066"/>
  <unicode hex="2014"/>
  <outline>
    <contour>
      <point x="1937" y="638" type="line"/>
      <point x="1937" y="508" type="line"/>
      <point x="121" y="508" type="line"/>
      <point x="121" y="638" type="line"/>
    </contour>
  </outline>
</glyph>
<glyph name="quoteleft" format="1">
  <advance width="528"/>
  <unicode hex="2018"/>
  <outline>
    <contour>
      <point x="132" y="976" type="line"/>
      <point x="374" y="976" type="line"/>
      <point x="380" y="356" type="line"/>
      <point x="306" y="356" type="line"/>
    </contour>
  </outline>
</glyph>
<glyph name="quoteright" format="1">
  <advance width="499"/>
  <unicode hex="2019"/>
  <outline>
    <contour>
      <point x="157" y="1030" type="line"/>
      <point x="186" y="1572" type="line"/>
      <point x="426" y="1572" type="line"/>
      <point x="255" y="1030" type="line"/>
    </contour>
  </outline>
</glyph>
<glyph name="quotedblleft" format="1">
  <advance width="902"/>
  <unicode hex="201C"/>
  <outline>
    <contour>
      <point x="670" y="1393" type="curve"/>
      <point x="791" y="1393" type="line"/>
      <point x="750" y="1100" type="line"/>
      <point x="505" y="1100" type="line"/>
      <point x="525" y="1391" type="line" smooth="yes"/>
      <point x="536" y="1551"/>
      <point x="644" y="1607"/>
      <point x="778" y="1646" type="curve"/>
      <point x="813" y="1552" type="line"/>
      <point x="725" y="1521"/>
      <point x="684" y="1489"/>
    </contour>
    <contour>
      <point x="316" y="1393" type="curve"/>
      <point x="437" y="1393" type="line"/>
      <point x="396" y="1100" type="line"/>
      <point x="151" y="1100" type="line"/>
      <point x="171" y="1391" type="line" smooth="yes"/>
      <point x="182" y="1551"/>
      <point x="290" y="1607"/>
      <point x="424" y="1646" type="curve"/>
      <point x="459" y="1552" type="line"/>
      <point x="371" y="1521"/>
      <point x="330" y="1489"/>
    </contour>
  </outline>
</glyph>
<glyph name="quotedblright" format="1">
  <advance width="900"/>
  <unicode hex="201D"/>
  <outline>
    <contour>
      <point x="292" y="1289" type="curve"/>
      <point x="171" y="1289" type="line"/>
      <point x="212" y="1582" type="line"/>
      <point x="457" y="1582" type="line"/>
      <point x="437" y="1291" type="line" smooth="yes"/>
      <point x="426" y="1131"/>
      <point x="318" y="1075"/>
      <point x="184" y="1036" type="curve"/>
      <point x="149" y="1130" type="line"/>
      <point x="237" y="1161"/>
      <point x="278" y="1193"/>
    </contour>
    <contour>
      <point x="646" y="1289" type="curve"/>
      <point x="525" y="1289" type="line"/>
      <point x="566" y="1582" type="line"/>
      <point x="811" y="1582" type="line"/>
      <point x="791" y="1291" type="line" smooth="yes"/>
      <point x="780" y="1131"/>
      <point x="672" y="1075"/>
      <point x="538" y="1036" type="curve"/>
      <point x="503" y="1130" type="line"/>
      <point x="591" y="1161"/>
      <point x="632" y="1193"/>
    </contour>
  </outline>
</glyph>
<glyph name="ellipsis" format="1">
  <advance width="1414"/>
  <unicode hex="2026"/>
  <outline>
    <contour>
      <point x="1176" y="235" type="curve" smooth="yes"/>
      <point x="1232" y="235"/>
      <point x="1272" y="186"/>
      <point x="1272" y="129" type="curve" smooth="yes"/>
      <point x="1272" y="57"/>
      <point x="1210" y="-21"/>
      <point x="1140" y="-21" type="curve" smooth="yes"/>
      <point x="1081" y="-21"/>
      <point x="1040" y="27"/>
      <point x="1040" y="87" type="curve" smooth="yes"/>
      <point x="1040" y="160"/>
      <point x="1103" y="235"/>
    </contour>
    <contour>
      <point x="702" y="235" type="curve" smooth="yes"/>
      <point x="758" y="235"/>
      <point x="798" y="186"/>
      <point x="798" y="129" type="curve" smooth="yes"/>
      <point x="798" y="57"/>
      <point x="736" y="-21"/>
      <point x="666" y="-21" type="curve" smooth="yes"/>
      <point x="607" y="-21"/>
      <point x="566" y="27"/>
      <point x="566" y="87" type="curve" smooth="yes"/>
      <point x="566" y="160"/>
      <point x="629" y="235"/>
    </contour>
    <contour>
      <point x="228" y="235" type="curve" smooth="yes"/>
      <point x="284" y="235"/>
      <point x="324" y="186"/>
      <point x="324" y="129" type="curve" smooth="yes"/>
      <point x="324" y="57"/>
      <point x="262" y="-21"/>
      <point x="192" y="-21" type="curve" smooth="yes"/>
      <point x="133" y="-21"/>
      <point x="92" y="27"/>
      <point x="92" y="87" type="curve" smooth="yes"/>
      <point x="92" y="160"/>
      <point x="155" y="235"/>
    </contour>
  </outline>
</glyph>
<glyph name="guilsinglright" format="1">
  <advance width="869"/>
  <unicode hex="203A"/>
  <outline>
    <contour>
      <point x="134" y="306" type="line"/>
      <point x="568" y="576" type="line"/>
      <point x="210" y="842" type="line"/>
      <point x="239" y="1049" type="line"/>
      <point x="751" y="666" type="line"/>
      <point x="725" y="481" type="line"/>
      <point x="105" y="99" type="line"/>
    </contour>
  </outline>
</glyph>
<glyph name="trademark" format="1">
  <advance width="1643"/>
  <unicode hex="2122"/>
  <outline>
    <contour>
      <point x="772" y="1413" type="line"/>
      <point x="985" y="1413" type="line"/>
      <point x="1064" y="758" type="line"/>
      <point x="1327" y="1413" type="line"/>
      <point x="1540" y="1413" type="line"/>
      <point x="1429" y="624" type="line"/>
      <point x="1311" y="624" type="line"/>
      <point x="1404" y="1288" type="line"/>
      <point x="1128" y="624" type="line"/>
      <point x="962" y="624" type="line"/>
      <point x="873" y="1288" type="line"/>
      <point x="780" y="624" type="line"/>
      <point x="661" y="624" type="line"/>
    </contour>
    <contour>
      <point x="154" y="1413" type="line"/>
      <point x="669" y="1413" type="line"/>
      <point x="655" y="1310" type="line"/>
      <point x="460" y="1310" type="line"/>
      <point x="364" y="624" type="line"/>
      <point x="239" y="624" type="line"/>
      <point x="335" y="1310" type="line"/>
      <point x="140" y="1310" type="line"/>
    </contour>
  </outline>
</glyph>
